<svg xmlns="http://www.w3.org/2000/svg" viewBox="0 0 1641.099 1644.893">
<path d="M818.769 22.447h1.67c3.977 20.669 12.632 40.637 26.63 56.507 17.44 21.269 42.279 34.27 66.639 45.97 20.42 10.085 39.4 23.336 54.542 40.471 21.472 23.576 38.625 50.731 53.564 78.81 5.619-2.187 11.719-3.451 17.772-2.537 5.85 1.661 11.285 5.13 14.911 10.076 3.165 4.549 3.423 10.335 3.838 15.695 3.636-2.473 6.967-5.712 11.248-7.05 9.79-2.464 19.22 4.595 29.02 2.464 39.04-11.506 80.812-16.581 121.135-9.403 26.51 5.158 51.257 17.559 78.321 20.3 16.757 1.366 34.113 1.403 50.224-4.088 12.457-3.626 23.299-11.036 35.082-16.249-6.025 10.75-12.595 21.37-16.231 33.236-6.561 21.961-7.326 45.629-2.048 67.949 4.854 23.788 16.046 45.887 19.543 69.988 6.764 42.012-3.248 84.281-14.192 124.632-.6 1.91 1.384 2.934 2.519 4.078 4.881 4.614 11.829 8.83 12.254 16.323 3.027 9.227-2.39 17.467-8.489 23.742 7.225.185 14.856 1.596 19.968 7.28 6.228 4.964 3.82 15.428 10.851 19.543 27.377 15.612 53.979 33.246 76.254 55.732 10.334 10.261 18.851 22.228 25.91 34.934 11.026 20.632 20.115 42.676 35.239 60.807 11.755 14.92 27.026 27.045 44.3 34.99 9.301 4.568 19.562 6.551 29.463 9.421v1.559c-13.869 3.202-27.709 7.308-40 14.634-15.705 9.255-29.084 22.238-39.253 37.324-14.625 20.678-22.884 45.084-37.822 65.569-25.199 35.294-61.204 61.056-99.11 81.218 1.744 9.421.6 20.909-7.705 26.971-4.789 4.983-12.06 4.881-18.399 5.407 8.138 6.192 12.217 17.864 7.945 27.451-2.252 6.671-8.148 11.054-13.712 14.874 3.534 16.452 8.904 32.507 11.285 49.218 3.248 22.754 5.573 45.933 2.63 68.863-2.537 30.191-17.366 57.559-21.665 87.4-2.399 16.895-2.851 34.381 2.15 50.888 3.082 14.514 12.106 26.62 17.956 40.018-9.301-4.798-17.993-10.87-27.839-14.514-21.047-7.926-44.254-9.513-66.353-5.758-26.934 4.291-51.525 17.485-78.561 21.333-36.715 4.724-73.79-.904-109.204-10.694-8.425-4.494-14.764 5.287-23.123 4.623-7.668 1.725-13.896-3.746-19.737-7.686-.065 7.124-1.301 14.699-7.133 19.589-7.419 7.723-19.036 7.253-28.549 4.54-19.442 36.863-42.796 72.526-74.796 99.737-18.076 14.468-39.76 23.133-59.931 34.141-26.242 14.57-49.356 36.743-60.494 65.043-3.22 7.926-4.937 16.314-6.856 24.627h-1.67c-3.174-9.052-4.724-18.621-8.563-27.442-7.871-18.621-21.269-34.501-36.992-47.004-18.593-14.487-40.6-23.372-60.826-35.165-32.914-20.42-59.202-50.298-79.133-83.239-3.857-6.081-6.81-12.715-11.063-18.528-5.592-5.481-13.841-8.36-17.236-15.889-1.163-4.346-1.716-8.747-1.864-13.204-6.911 10.796-22.394 13.684-32.858 6.367-6.201-3.866-8.517-10.934-10.851-17.403-44.198 14.542-91.617 23.363-138.067 15.908-25.818-4.595-49.772-16.452-75.792-20.189-18.113-2.556-37.029-2.861-54.542 3.073-13.084 3.451-24.489 10.962-36.466 16.941 3.562-7.345 8.295-14.053 11.663-21.49 9.67-21.315 12.3-45.453 9.172-68.531-3.737-27.774-17.181-53.029-21.749-80.609-5.767-35.368.185-71.317 8.858-105.679 2.971-9.015 1.043-18.593 1.679-27.829 1.264-4.826 5.02-8.498 7.945-12.392-4.189-.277-8.461-.314-12.531-1.393-13.721-4.078-20.125-23.216-11.552-34.685 1.356-2.159 2.851-4.198 4.337-6.247-6.727-.867-12.992-3.82-17.642-8.83-6.431-7.188-15.373-11.303-23.4-16.341-24.166-15.022-46.072-33.781-64.369-55.576-20.531-24.102-29.638-55.354-48.812-80.36-12.641-17.135-29.776-31.04-49.486-39.179-8.535-3.34-17.476-5.389-26.224-8.046v-1.467c16.295-3.516 32.332-9.116 46.145-18.63 22.856-15.188 38.874-38.422 50.75-62.754 10.362-21.675 22.062-43.276 39.456-60.198 26.907-26.048 58.86-46.385 92.088-63.382-1.873-2.962-3.755-5.961-5.204-9.144-3.949-9.513-.074-21.204 7.908-27.396 5.324-3.912 11.995-4.291 18.344-4.429-2.833-3.682-6.681-7.013-7.594-11.774-1.006-6.671.738-13.546-1.033-20.134-9.273-34.805-16.692-70.865-12.826-107.054 2.445-30.561 18.113-58.021 22.561-88.175 2.943-18.547 1.892-37.776-3.442-55.806-3.202-12.872-10.593-24.055-16.794-35.608 11.063 4.134 20.604 11.58 31.982 15.031 17.522 6.754 36.669 6.92 55.123 4.992 29.582-3.746 56.646-18.03 86.238-21.767 45.241-5.453 90.805 3.193 133.564 17.79 2.934-9.956 11.405-19.239 22.284-19.672 8.581-1.255 15.926 4.208 21.333 10.205.646-5.592.046-11.949 3.654-16.674 3.792-4.918 9.799-6.957 14.764-10.344 3.082-2.842 5.038-6.69 7.16-10.251 16.341-29.601 38.155-56.286 64.406-77.638 14.533-11.802 31.197-20.466 47.917-28.706 23.373-11.765 45.573-27.525 59.94-49.818 9.086-13.266 13.469-28.906 17.649-44.232m-16.692 46.099c-9.384 14.607-22.441 26.537-36.9 36.005-23.299 15.677-50.685 24.729-72.221 43.119-28.337 23.077-50.187 53.01-67.839 84.77 3.811.849 7.779 1.283 11.479 2.639 4.235 1.652 7.003 5.472 10.076 8.637.766-3.691 1.329-7.539 3.211-10.879 4.614-9.615 16.443-15.096 26.759-12.097 6.939.849 11.239 6.948 15.409 11.857 1.504-5.093 2.335-10.962 6.551-14.69 8.065-9.006 23.013-9.975 32.471-2.639 2.916 2.888 5.324 6.302 7.216 9.956 1.024-3.672 2.159-7.336 3.995-10.694 6.33-10.122 20.9-13.739 31.179-7.502 4.983 2.519 7.668 7.677 11.313 11.663 1.772-3.017 3.202-6.238 5.167-9.144 5.426-6.459 14.459-9.449 22.69-7.594 9.642.997 16.867 9.513 18.51 18.75 2.408-10.501 12.484-19.146 23.511-18.159 11.645-.6 20.964 9.052 23.4 19.931 1.541-3.331 3.183-6.745 5.961-9.246 7.622-7.76 20.807-8.48 29.684-2.482 6.145 3.562 8.821 10.593 10.565 17.126 3.958-6.681 10.519-12.346 18.501-13.038 13.859-2.178 27.506 10.307 26.63 24.268 5.093-9.615 16.747-15.317 27.442-11.894 11.516 1.956 17.984 13.988 17.91 24.913a359.847 359.847 0 0 1 5.333-6.597c-6.007-12.383-13.038-24.24-20.457-35.82-16.784-25.522-35.709-50.51-61.029-68.143-15.742-11.276-33.993-18.15-50.685-27.774-20.678-11.202-39.022-27.045-52.042-46.708-8.286-12.078-12.752-26.261-16.627-40.24-3.489 14.67-8.508 29.212-17.163 41.706m1.347 135.197c-10.371 1.855-19.063 12.374-16.627 23.151 1.55 11.045 13.001 19.737 24.12 17.522 11.313-1.449 20.724-13.213 18.196-24.655-2.123-11.303-14.598-18.814-25.689-16.018m47.049.877c-7.031 1.098-13.656 5.647-16.12 12.503-5.306 11.174 3.239 25.144 14.828 27.645 11.737 3.728 25.301-5.389 26.501-17.633 2.316-13.796-12.235-25.32-25.209-22.515m-93.185 1.919c-8.517 1.486-15.234 8.812-16.84 17.19-1.08 10.344 5.868 21.01 16.397 23.013 12.143 3.442 25.596-6.339 26.399-18.87 2.048-13.711-13.112-24.987-25.956-21.333m138.389 2.694c-9.559 1.32-17.67 11.027-16.074 20.789-.424 11.589 11.469 21.112 22.616 19.875 10.519-.683 20.217-9.901 19.774-20.761.416-13.019-13.822-23.566-26.316-19.903m-184.535 3.71c-11.875 1.642-20.558 16.203-15.188 27.276 4.042 10.381 17.255 16.858 27.654 11.885 10.445-3.912 17.347-17.126 12.143-27.617-3.626-9.597-14.948-14.313-24.609-11.544m231.613 3.718c-9.799 1.144-19.211 10.491-17.929 20.734-.48 12.983 14.035 23.419 26.362 19.922 11.285-2.141 18.694-14.754 15.539-25.753-2.907-9.892-13.988-16.158-23.972-14.903m-275.885 5.537c-11.46 1.781-20.494 13.961-17.116 25.439 2.242 10.63 14.099 17.606 24.581 15.123 12.66-1.421 21.112-16.517 16.175-28.115-3.515-9.135-14.191-14.413-23.64-12.447m164.18 6.209c-2.473 6.053-8.102 11.128-6.865 18.224-.046 21.592.065 43.183.12 64.775 1.356-1.255 2.704-2.51 4.06-3.774 12.383 12.069 23.742 25.126 35.414 37.878 3.931-35.599 6.413-71.336 9.523-107.008-6.505 5.85-15.04 11.202-24.185 8.24-9.292-1.55-15.308-9.901-18.067-18.335m154.122.213c-6.561 1.587-12.448 6.662-14.653 13.084-4.457 12.051 5.103 26.095 17.541 27.691 13.047 2.344 26.445-9.827 23.982-23.243-1.32-12.374-15.031-20.725-26.87-17.532m-200.184.71c-1.089 7.05-5.592 12.724-11.23 16.849 3.174 34.344 5.989 68.715 9.135 103.068 9.236-7.631 17.236-16.609 26.325-24.415 4.337-4.208 9.522-7.723 12.937-12.78.775-23.299-.028-46.634.231-69.942-7.077 3.46-15.529 6.321-23.068 2.74-7.059-2.583-10.972-9.273-14.33-15.52m88.553 25.218c-2.242 29.398-5.536 58.722-7.603 88.138-1.301 6.044 3.7 9.919 7.086 13.905 8.969 9.836 16.858 20.595 25.707 30.533 8.286-43.063 15.225-86.376 23.206-129.504 1.615-6.967 1.781-14.108 1.236-21.213-3.349 5.758-7.686 11.488-14.145 13.878-7.659 2.953-16.618 1.624-22.948-3.636-5.702-3.645-7.151-10.805-9.338-16.72-2.472 7.955-2.186 16.425-3.201 24.619m-133.924-20.623c-1.375 9.153-7.723 16.12-15.548 20.457 7.742 44.06 15.769 88.065 23.188 132.18 11.174-11.848 23.253-23.003 33.292-35.848.341-9.799-1.541-19.58-2.224-29.352-1.836-24.609-4.761-49.153-5.998-73.809-5.832.932-11.848 2.768-17.633.434-7.187-1.771-11.487-8.129-15.077-14.062m-114.325 1.2c-12.438.36-23.04 13.158-19.903 25.495 2.353 9.541 12.3 17.172 22.284 15.557 13.813.609 24.249-16.286 18.418-28.577-2.843-8.443-12.153-13.499-20.799-12.475m68.429 6.828c-.775 5.149-1.698 10.648-5.25 14.727-3.7 3.977-8.729 6.21-13.481 8.637 14.293 52.3 27.608 104.877 42.279 157.066 9.264-11.23 18.316-22.662 28.466-33.126-7.409-44.706-15.659-89.264-23.308-133.924-5.453-.037-11.257.138-16.341-2.15-5.001-2.649-8.572-7.188-12.365-11.23m336.683 1.403c-8.295 1.412-15.576 8.231-16.646 16.729-2.316 12.512 9.163 25.218 21.758 24.397 11.968.378 22.754-11.469 20.697-23.363-1.8-11.637-14.303-20.098-25.809-17.763m-85.25 16.156c-8.341.535-14.782-5.638-20.051-11.248-7.88 47.16-17.163 94.081-24.554 141.306 9.163 12.171 18.427 24.258 27.58 36.438 13.02-46.321 24.849-92.983 37.536-139.396 1.975-8.037 4.798-15.935 5.73-24.166-1.476-5.453-3.543-10.796-3.562-16.544-4.825 7.742-12.843 15.188-22.679 13.61m-362.381-7.852c-10.39.563-20.3 8.877-21.093 19.534-1.458 11.303 8.664 21.204 19.46 22.191 13.942 1.338 27.036-13.499 22.404-27.174-2.27-9.208-11.608-14.939-20.771-14.551m-181.711 7.391c-25.486 7.594-50.888 17.55-77.85 17.864-13.075-.507-26.224-2.15-38.653-6.385-9.818-3.479-18.962-8.526-28.014-13.601 14.478 21.841 21.684 48.406 19.46 74.602-1.043 36.743-21.97 69.213-24.424 105.707-2.288 35.516 4.909 70.717 13.915 104.886 3.589-3.7 7.013-7.76 11.599-10.251 5.038-2.722 10.916-1.273 16.36-1.255-4.623-5.453-8.904-12.18-7.631-19.672.397-8.637 6.478-16.452 14.284-19.811 4.983-2.75 10.805-1.19 16.194-1.126-10.012-11.626-5.001-31.437 9.024-37.278 6.302-3.451 13.509-1.993 19.765.554-3.165-5.25-6.828-11.202-5.684-17.606.858-12.125 12.512-21.546 24.314-21.813a74.015 74.015 0 0 1 10.768 3.331c-1.975-4.798-4.392-9.79-3.774-15.133.406-9.153 6.81-17.366 15.243-20.678 6.597-3.239 13.942-.96 20.374 1.495-.987-3.285-2.058-6.579-2.611-9.956-.378-11.783 8.969-22.191 20.217-24.544 6.459-1.375 12.42 1.356 17.873 4.383-2.768-9.218-2.067-20.383 5.684-27.027 8.6-8.48 22.985-8.268 32.028-.609-.674-4.383-1.135-8.849-.747-13.269 2.15-12.254 15.428-21.103 27.635-18.537 4.558.581 8.397 3.322 12.097 5.859-.166-3.682-.36-7.4.203-11.045 2.316-12.457 16.683-20.798 28.752-17.559 5.444.794 9.2 5.029 13.361 8.203-.941-3.091-.895-7.649-4.881-8.397-24.305-8.24-49.412-14.459-74.943-17.31-26.67-2.197-54.102-1.607-79.938 5.978m759.464-6.256c-22.588 2.141-45.001 6.431-66.657 13.26 2.178 3.654 4.586 7.28 5.859 11.377.498 4.088-.166 8.258-.295 12.383 3.977-3.433 7.917-7.446 13.26-8.544 10.574-2.03 22.265 3.931 26.787 13.693 2.556 5.675 1.901 12.088.461 17.956 4.955-3.386 9.993-7.797 16.48-7.059 9.338-.461 18.002 5.555 21.933 13.896 3.165 5.453 1.421 11.968 1.283 17.938 2.777-1.366 5.499-2.962 8.489-3.903 12.3-2.897 25.753 5.509 28.761 17.689.969 5.629-.101 11.433-2.242 16.683 8.406-5.546 20.291-6.072 28.254.581 9.79 6.939 11.875 20.955 6.035 31.068 10.187-5.13 24.378-3.303 30.957 6.616 6.394 7.557 6.099 19.017 1.181 27.276 7.271-1.679 15.733-2.556 22.118 2.058 6.459 4.964 12.134 12.651 10.999 21.26.397 5.444-3.008 9.855-5.546 14.311 5.158-1.264 10.574-1.698 15.843-.609 10.344 2.98 17.476 13.868 16.96 24.489-.046 5.804-3.46 10.501-6.671 14.985 4.318-.258 8.618-.415 12.973.065 10.298 2.731 18.639 13.407 17.19 24.268.406 6.431-3.7 11.599-7.16 16.554a92.258 92.258 0 0 1 9.855-.157c6.035-18.381 10.168-37.333 13.592-56.351 4.088-22.856 5.324-46.404 1.762-69.416-2.934-18.787-10.251-36.438-15.668-54.561-6.367-20.9-9.79-43.147-6.182-64.904 1.919-17.642 9.246-34.113 18.454-49.089-12.023 7.317-24.673 14.09-38.616 16.812-18.131 5.186-37.232 3.525-55.511.212-21.343-4.272-41.366-13.278-62.68-17.67-20.357-4.8-41.524-4.284-62.258-3.167m-510.311 1.458c-1.836 6.219-3.156 13.278-8.129 17.873-4.3 3.737-9.892 5.656-15.4 6.745 18.048 50.953 36.937 101.619 55.188 152.498 1.08 2.399 1.587 5.795 4.531 6.588 5.084 1.91 10.427 3.017 15.695 4.374 4.161-5.887 8.517-11.645 13.232-17.107-.895-7.271-3.211-14.238-5.066-21.296-12.226-46.108-24.978-92.078-36.927-138.261-9.006-.286-17.855-3.829-23.124-11.414M992.6 271.148c-7.04.526-13.629-2.611-19.174-6.653-14.099 52.484-27.977 105.043-42.233 157.49-3.719 6.514 2.251 11.875 5.675 16.683 9.033-2.215 18.196-4.125 27.036-7.105 5.038-10.528 7.926-21.998 12.401-32.784 13.647-37.702 27.202-75.442 41.218-113.015.794-2.362 1.725-5.13.111-7.373-3.313-5.37-6.422-11.073-6.45-17.578-4.946 5.214-10.971 10.455-18.584 10.335m79.327-9.32c-10.63 1.264-17.882 12.937-15.677 23.197 1.412 11.497 13.804 19.912 25.015 17.43 9.689-1.329 18.445-10.584 17.015-20.687.378-13.019-14.007-23.086-26.353-19.94m-465.246 7.391c-.618 7.326-2.787 14.874-8.305 20.069-5.472 4.494-12.66 6.358-19.654 5.961 19.562 42.879 39.917 85.398 59.488 128.277 1.19 3.128 4.743 3.728 7.603 4.438 12.189 2.473 24.249 5.573 36.254 8.821-18.722-51.147-37.241-102.358-55.889-153.523-.83-2.021-1.679-4.42-4.042-5.02-5.619-2.111-10.925-5.055-15.455-9.023m-67.193 2.695c-9.273.941-17.652 8.332-19.414 17.523-1.181 8.028 2.353 17.061 9.818 20.9 8.332 5.573 20.734 3.294 27.063-4.328 5.13-5.287 6.57-13.684 4.281-20.577-2.315-9.218-12.687-14.819-21.748-13.518m501.721 13.748c-7.068 1.762-14.33-.111-20.42-3.737-18.371 49.726-36.337 99.608-54.45 149.435 13.038-2.381 26.067-4.844 39.105-7.234 1.901-.212 3.082-1.781 3.857-3.396 18.353-39.834 37.13-79.483 55.492-119.317-7.299-5.804-11.839-14.81-10.325-24.304-4.087 3.303-7.935 7.391-13.259 8.553m73.172-2.574c-5.186.71-10.473 3.349-13.296 7.889-6.69 8.102-4.586 21.463 3.349 27.986 7.437 7.317 20.125 6.93 28.152.766 6.92-6.053 9.282-17.089 4.475-25.098-3.995-8.184-13.794-12.853-22.68-11.543m-549.979 4.161c.461 9.652-3.008 20.549-12.318 24.978-6.431 4.309-14.33 2.251-21.453 1.366 18.814 31.926 37.13 64.148 55.612 96.268 2.113 2.962 3.46 7.483 7.603 8.055 14.404 2.639 28.854 5.057 43.22 7.898-18.584-42.261-39.077-83.663-58.021-125.767-2.011-6.855-9.725-8.664-14.643-12.798m-65.477 7.807c-10.132 1.55-19.774 10.98-18.824 21.712-.535 11.248 10.971 21.278 22.081 19.368 14.238.526 24.831-16.923 18.491-29.499-3.312-8.296-13.065-13.251-21.748-11.581m584.582 8.784c-5.721 2.113-11.599-.544-17.246-1.495-18.159 40.664-38.072 80.544-55.982 121.319 14.782-2.962 30.025-3.128 44.724-6.376 4.558-4.586 6.856-10.962 10.242-16.406 14.487-25.403 29.324-50.602 43.792-76.014-5.13-3.562-10.002-7.972-12.365-13.878-1.836-4.89-.554-10.233-.507-15.299-3.846 3.249-7.509 7.106-12.658 8.149m68.687 4.143c-9.624 2.279-17.569 12.115-15.696 22.284.895 10.833 11.543 20.651 22.653 18.777 10.694.609 20.374-9.642 19.396-20.226.194-13.241-13.545-23.732-26.353-20.835m-628.106-.138c-.231 5.684-.111 11.488-1.855 16.987-3.239 6.773-9.892 11.848-17.283 13.149-7.4 1.246-14.044-2.021-20.577-4.798.867 2.565 1.661 5.213 3.156 7.502 15.465 23.465 32.581 45.795 48.101 69.232 17.504 2.104 34.934 4.927 52.484 6.653-18.159-31.419-36.263-62.865-54.422-94.284-2.868-5.02-5.682-10.16-9.604-14.441m304.258 2.611c-22.394 18.796-43.709 38.92-63.465 60.484-21.758 22.671-42.131 46.68-61.02 71.788 16.111 6.007 32.627 11.008 48.268 18.251 3.146 1.181 7.428 4.134 9.965.388 20.291-23.345 42.842-44.586 66.224-64.794 19.728 18.473 36.715 39.659 54.145 60.254 17.153-6.81 34.694-12.577 52.503-17.439-31.888-45.804-67.293-89.31-106.62-128.932m296.397 15.169c-4.521.886-9.19-.083-13.712-.138-18.039 30.505-35.46 61.379-53.343 91.968 16.526-1.264 33.07-2.408 49.642-3.045 14.957-21.084 29.536-42.427 44.586-63.446-6.348-3.073-13.038-7.133-15.456-14.182-2.916-5.49-1.781-11.571-.637-17.31-3.541 2.287-7.038 4.852-11.08 6.153m-666.445-3.792c-11.626 2.648-20.263 16.858-15.188 28.198 3.313 8.858 13.527 14.127 22.717 12.512 10.399-1.707 19.829-11.663 17.882-22.644.785-12.76-13.692-21.96-25.411-18.066m730.823 13.85c-6.856.535-12.078 6.238-14.468 12.328-1.513 4.854-.793 10.141.037 15.068 3.894 11.728 18.823 17.181 29.721 11.866 6.551-3.58 11.977-10.621 10.999-18.436.452-13.278-13.481-23.88-26.289-20.826m-702.754 6.865c-1.679 7.253-4.586 15.05-11.645 18.713-7.935 5.352-18.298 3.294-26.547-.36.969 4.789 1.43 9.633 2.288 14.45 5.426 8.664 12.752 15.926 19.11 23.898 2.279 1.753 3.506 5.795 6.8 5.933 18.944 1.061 37.85 2.676 56.71 4.789-3.46-6.57-8.111-12.42-12.383-18.464-11.781-16.082-22.596-32.848-34.333-48.959m667.396 8.914c-14.819 20.835-29.481 41.781-43.802 62.967 18.168-1.255 36.401-.572 54.607-.803 9.486-11.589 19.239-22.948 28.761-34.501-4.235-1.144-8.674-2.187-12.198-4.927-8.877-6.358-12.3-18.657-7.28-28.531-5.998 3.838-12.919 5.961-20.088 5.795m-729.578-1.043c-12.42 1.642-21.868 15.723-17.476 27.783 3.23 11.811 18.621 17.467 29.103 11.534 9.633-3.995 14.339-16.203 11.008-25.873-2.492-9.458-13.149-15.612-22.635-13.444m799.982 15.695c-13.204 2.242-19.94 18.777-13.25 29.988 5.656 13.038 25.292 15.262 34.38 4.946 6.321-6.201 6.764-16.803 2.353-24.194-4.743-7.824-14.155-13.351-23.483-10.74m-32.591 18.123c-8.046 9.781-16.314 19.396-24.203 29.306 15.502 1.107 31.05 1.569 46.579 2.537 3.599.517 8.443-.037 8.083 5.546 3.922-4.115 7.917-8.157 11.949-12.18-5.241-.83-11.1-.074-15.714-3.165-7.603-3.765-11.156-12.291-11.94-20.263.655-4.125 1.938-8.12 3.248-12.088-6.071 3.266-13.536 4.66-18.002 10.307m-742.468-6.598c-3.719 6.339-8.111 13.343-15.788 15.188-6.477 2.334-13.066-.102-19.442-1.439.812 2.537 1.753 5.057 2.122 7.705.443 4.457-1.273 8.849-.923 13.306 1.845 2.98 4.872 4.955 7.409 7.317.452-5.398.83-10.796 1.347-16.185 15.834-.258 31.659.461 47.492.757-7.149-9.089-14.716-17.855-22.217-26.649m-58.123 4.245c-8.646 1.347-16.508 8.249-18.021 17.006-3.636 11.506 6.108 23.815 17.652 24.794 12.734 1.836 24.877-10.178 23.686-22.856-.165-11.378-12.041-21.454-23.317-18.944m437.297 17.089c-38.072 32.766-72.775 69.546-102.92 109.739 10.048 3.294 19.857 7.391 30.007 10.335 6.431-1.338 12.189-5.066 18.39-7.317 35.229-13.112 75.368-12.005 110.127 2.067 3.23 1.504 6.653.037 9.781-.978 7.548-2.611 15.17-5.029 22.874-7.17-12.078-18.298-25.762-35.451-39.474-52.521-15.669-18.566-31.226-37.325-48.785-54.155m428.18.35c-11.765 2.39-18.704 16.203-14.256 27.294 3.516 8.12 11.958 15.216 21.25 13.952 10.63.508 20.355-9.827 19.331-20.401.563-13.288-13.573-24.093-26.325-20.845m-831.603 6.035c-3.183 50.381-3.045 101.01.83 151.345 5.832 66.196 17.55 132.641 43.534 194.141 14.108-10.814 28.494-21.287 43.303-31.133a164.758 164.758 0 0 0-2.168-9.79c-10.454-39.797-16.424-80.738-18.574-121.809-3.073-37.407-1.716-75.026.692-112.434 77.85 1.329 156.032 10.491 230.967 32.221 11.008-14.561 22.819-28.494 34.501-42.519-54.016-23.982-112.092-37.269-170.215-46.782-53.888-8.119-108.328-13.425-162.87-13.24m818.122-.249c-7.76 5.287-14.607 11.875-20.549 19.11-2.27 2.362-1.006 6.025-1.541 8.812.083 18.657-1.91 37.223-2.427 55.862 10.833-8.572 21.149-17.79 31.834-26.556 8.166-6.856 16.978-13.186 23.511-21.749-5.702 1.255-11.589 3.709-17.375 1.356-7.28-1.836-12.844-8.046-15.815-14.69-2.695-7.253-.462-15.262 2.362-22.145m-844.143 19.598c-5.472 1.845-11.165.074-16.627-.812 1.338 5.269 3.617 10.584 2.261 16.129-.581 3.516-1.689 6.93-2.916 10.27 13.241 10.787 26.205 21.905 39.4 32.747-.378-18.842.591-37.656.95-56.489 1.384-6.007-4.807-9.098-7.889-13.121-4.282 4.623-8.683 9.938-15.179 11.276m695.252-7.677c-71.382 4.208-143.299 14.902-210.141 41.273 11.377 15.677 23.898 30.514 34.538 46.736 76.826-20.42 157.176-23.557 236.171-18.334-.166 14.551-.821 29.093-1.523 43.626-4.291 62.145-12.281 124.401-30.044 184.268 13.398 9.523 26.048 20.023 39.225 29.832 22.561-53.896 35.506-111.271 44.494-168.84 7.483-52.032 12.771-104.544 12.355-157.167-41.55-3.94-83.432-3.378-125.075-1.394m-737.282-.147c-11.294 3.719-19.774 17.578-14.127 29.038 3.728 9.716 16.055 14.708 25.716 11.054 10.418-2.74 16.803-14.856 14.173-25.144-2.002-11.285-14.837-18.538-25.762-14.948m929.19 17.513c-12.365 2.51-18.87 18.095-13.324 29.121 4.208 10.464 17.449 15.539 27.654 10.962 10.067-3.534 14.985-16.018 11.137-25.772-3.681-9.984-14.782-17.07-25.467-14.311m-61.103 51.451c-2.787 2.657-7.077 4.826-7.271 9.163-1.522 17.578-3.737 35.11-4.974 52.706 26.27-17.301 51.58-36.032 77.546-53.795 6.948-3.599 7.88-12.115 12.06-18.021-8.932 3.552-20.152 2.436-26.648-5.167-6.302-5.158-6.699-13.758-7.105-21.186-14.745 11.848-28.955 24.332-43.608 36.3m-844.336-34.076c-4.217 2.897-8.415 6.145-13.37 7.677-4.817.71-9.707-.148-14.542-.351 1.587 5.333 3.792 10.611 3.672 16.277-.83 5.25-3.008 10.104-5.536 14.727 23.945 16.766 47.769 33.725 71.982 50.095-1.578-18.085-1.901-36.244-1.864-54.394-13.334-11.48-26.926-22.654-40.342-34.031m-48.646 1.07c-10.98 1.08-19.285 11.857-19.497 22.561.572 6.634 4.023 13.223 9.892 16.655 6.976 4.005 16.397 3.746 23.013-.923 11.183-6.902 12.457-25.255 2.132-33.43-3.942-4.171-9.995-5.629-15.54-4.863m980.844 19.414c-7.899 1.744-14.099 9.486-14.819 17.458-2.39 13.389 10.87 26.464 24.166 24.111 10.205-1.107 19.128-11.183 16.969-21.675.055-12.89-13.712-23.742-26.316-19.894m-818.704 5.029c-4.235 52.724-2.381 105.873 4.032 158.348 4.401 35.386 11.811 70.459 23.179 104.295 3.774-4.586 6.764-9.744 10.574-14.293 7.594-9.679 17.292-17.439 27.469-24.24-2.51-22.524.305-45.859 10.058-66.436 20.125-43.479 61.739-77.435 109.379-85.278 13.684-1.089 27.617-.757 41.07 2.215 9.107-12.604 20.927-23.068 34.288-30.976-12.088-5.112-24.674-8.941-37.186-12.853-72.357-20.706-147.753-29.407-222.863-30.782m396.19 38.505c6.874 4.512 14.191 8.305 20.9 13.084 10.916 8.406 20.014 18.934 27.709 30.321 26.196-3.183 53.444 1.864 76.3 15.169 37.527 20.927 66.224 58.362 74.51 100.743 2.399 14.8 1.421 29.988-1.403 44.669 8.775 6.542 16.203 14.579 23.446 22.736 12.512-32.941 20.438-67.405 26.943-101.979 8.692-50.196 13.961-101.112 14.099-152.074-17.227-1.753-34.556-1.735-51.82-2.574-70.993.618-143.141 6.634-210.684 29.905m-585.098-24.203c-11.552 1.79-20.475 15.031-17.052 26.381 1.864 11.202 15.17 18.473 25.716 14.57 11.119-2.842 18.381-16.074 14.422-26.916-2.51-9.707-13.149-16.498-23.086-14.035m21.075 4.891c2.851 5.472 5.149 11.386 4.383 17.753.314 7.003-5.038 12.134-8.877 17.329 26.491 14.865 52.558 30.478 79.031 45.379 8.923 4.955 17.393 10.731 26.621 15.133-1.864-14.837-3.045-29.758-4.364-44.651 1.052-5.149-4.189-6.939-7.123-9.624-22.496-15.188-44.254-31.437-66.805-46.533-6.7 4.642-14.793 6.109-22.866 5.214m885.767 54.127c-2.408 16.609-4.789 33.227-7.585 49.772 19.562-9.975 37.961-22.053 57.246-32.544 19.165-11.248 38.579-22.081 57.624-33.532.738-7.317 3.322-14.505 8.535-19.857-7.29 1.393-15.825 2.187-21.887-2.98-6.662-4.041-9.19-11.94-10.519-19.137-27.737 19.523-55.474 39.057-83.414 58.278m-395.525-46.007c-36.198 2.316-73.19 17.753-94.754 47.954 11.396 3.728 22.099 9.366 31.677 16.591 21.85-15.271 48.849-23.17 75.488-21.619 23.114.609 46.468 6.874 65.55 20.235 2.916 1.384 5.712 5.841 9.393 3.931 10.325-5.167 20.983-9.725 32.443-11.737-4.632-8.757-10.962-16.554-18.371-23.086-27.47-24.186-65.339-34.502-101.426-32.269m521.218 7.344c-7.326 1.218-12.604 7.779-15.188 14.358-4.567 13.841 8.96 30.191 23.64 27.285 13.01-.664 21.389-16.821 16.028-28.235-3.931-9.218-14.146-16.443-24.48-13.408M282.077 532.223c-12.89 2.445-21.066 18.196-15.317 30.108 3.958 10.168 17.218 14.856 26.888 9.975 9.467-3.571 14.93-14.653 12.512-24.434-1.957-10.639-13.38-18.639-24.083-15.649m20.613 3.811c2.916 6.192 7.234 12.401 5.638 19.636-.286 8.646-7.271 14.238-13.527 19.017 46.837 21.407 93.26 43.728 140.125 65.08-2.565-12.328-4.549-24.757-6.081-37.25-.683-3.313-.231-7.603-3.746-9.292-33.246-19.414-66.824-38.293-99.903-57.984-6.792-5.103-15.161 1.429-22.506.793m-3.109-2.261c-.406 1.283.046 1.726 1.338 1.338.396-1.301-.047-1.744-1.338-1.338m904.073 69.979c-2.27 14.634-5.656 29.047-8.563 43.562 48.747-22.09 97.07-45.112 145.578-67.719-.461-8.95 1.578-18.067 8.341-24.36-5.509.434-11.405.591-16.314-2.298-6.865-2.907-10.279-9.984-12.78-16.554-38.836 22.304-77.867 44.32-116.262 67.369m-448.636-33.319c10.63 9.393 19.516 20.614 27.1 32.563 13.333-4.687 27.202-8.129 41.421-8.12 15.289.351 30.45 3.322 44.66 9.024 8.701-11.885 19.294-22.404 31.815-30.238-41.126-31.317-102.68-33.199-144.996-3.229m-108.835-9.08c-36.78 16.655-67.008 48.48-80.055 86.856-9.735 28.18-7.603 60.512 7.114 86.588 11.543 22.588 32.701 38.505 55.206 49.163a524.875 524.875 0 0 0 1.965-7.373c-8.083-6.773-15.677-14.274-21.121-23.382-16.378-25.117-18.916-58.132-7.465-85.758 15.483-38.634 50.547-69.629 91.506-78.33 21.804-4.448 45.804-.794 64.221 12.134 11.488 7.751 20.245 18.703 28.143 29.933 2.824-.286 5.416-.747 8.341-.932-9.587-22.155-22.413-43.811-41.467-59.1-14.699-12.217-33.421-19.423-52.475-20.521-18.49-.683-37.092 2.99-53.913 10.722m713.651-8.766c-9.882 1.532-18.334 11.451-17.006 21.61-.443 12.005 11.479 22.155 23.197 20.66 11.386-.618 20.531-12.807 17.781-23.889-1.513-11.1-12.622-20.374-23.972-18.381m-472.71 32.849c-14.431 12.761-25.052 29.324-32.877 46.8 2.454.286 4.77.461 7.271.738 15.889-22.127 41.836-36.134 68.872-38.265 23.206-.969 46.33 6.192 65.495 19.174 30.634 20.724 53.647 54.496 56.84 91.875.775 17.172-3.11 34.796-12.54 49.319-7.797 13.481-20.484 23.013-33.144 31.603.221 2.657.637 5.435.913 8.12 26.076-11.386 52.051-26.75 67.589-51.396 8.849-14.717 14.551-31.898 13.638-49.227.212-34.953-17.052-68.235-41.338-92.568-23.068-23.815-54.727-40.166-88.129-41.772-26.205-.495-52.613 8.538-72.59 25.599M261.767 574.65c-10.454 2.251-17.126 13.776-15.649 24.092.507 8.018 6.865 14.634 14.201 17.227 13.361 4.078 28.992-8.194 26.842-22.321.249-12.567-13.177-23.04-25.394-18.998m20.097 1.799c5.859 8.249 10.251 19.073 5.056 28.881-3.017 8.221-11.737 10.943-19.11 13.684 58.907 21.121 117.592 42.87 176.471 64.092-2.639-12.438-5.85-24.738-8.148-37.241-.332-2.335-1.523-4.595-3.995-5.241-44.881-20.983-89.882-41.735-134.717-62.81-4.816-2.758-10.325-2.279-15.557-1.365m1041.403 13.333c-41.975 19.571-83.977 39.077-125.942 58.639-3.017 1.2-3.755 4.586-4.549 7.373-2.851 11.331-5.942 22.597-8.821 33.919 58.621-21.26 117.121-42.86 175.834-63.852-.886-5.712-1.781-11.728-.24-17.375 2.03-4.567 5.841-8.074 8.95-11.912-4.254-.434-8.581-.175-12.706-1.227-6.45-2.519-10.713-8.212-14.191-13.905-6.229 2.518-12.273 5.471-18.335 8.34M637.417 619.9c-18.805 17.107-33.744 39.483-38.782 64.683-4.595 18.113-1.541 37.416 5.278 54.57 6.007 13.546 14.561 26.371 26.962 34.833 2.03-7.087 4.494-14.035 6.764-21.038 1.689-4.457-1.163-8.95-1.855-13.278-2.694-11.958-1.735-24.526 1.052-36.374 10.27-35.995 41.033-65.412 77.582-73.707 14.57-3.506 30.21-1.707 43.922 4.18 8.111 4.586 17.107-1.882 25.412-2.436-13.629-20.503-34.205-37.675-59.165-41.403-31.715-4.411-63.825 8.913-87.17 29.97m739.017-23.991c-9.67 1.855-17.31 11.755-16.065 21.656.028 11.94 11.848 22.422 23.843 20.291 12.263-.757 20.134-14.625 16.812-25.836-2.159-10.796-13.766-18.63-24.59-16.111m-593.08 8.821c4.337 8.148 8.572 16.369 12.392 24.794 18.888-1.984 37.915-.618 56.683 1.91 4.254-8.886 9.144-17.439 14.339-25.809-26.195-11.866-56.894-11.589-83.414-.895m80.167 29.02c6.92 2.085 13.684 4.798 20.734 6.468 3.562-.36 6.791-2.131 10.242-2.99 19.063-5.924 40.083-2.999 57.938 5.389 32.138 15.696 56.867 48.055 59.792 84.161.295 13.038-2.777 26.076-8.766 37.656-1.421 6.884 1.753 13.684 2.87 20.401 22.035-13.149 40.535-35.137 43.691-61.241 2.842-21.223-2.196-43.128-12.697-61.666-17.347-32.609-49.449-57.726-86.044-64.305-32.942-5.672-68.457 8.741-87.76 36.127m-612.919-16.72c-13.01.305-23.123 14.265-19.995 26.713 1.845 8.923 10.344 16.683 19.691 16.212 11.506.388 22.072-10.519 21.186-22.025.452-11.23-9.68-21.287-20.882-20.9m15.548 3.193c6.459 7.483 9.855 18.344 5.204 27.663-3.017 8.84-12.457 12.318-20.558 14.764 2.722 3.432 5.878 6.957 10.381 7.88 49.264 13.084 98.464 26.399 147.719 39.539 4.835 1.246 9.652 2.953 14.653 3.257 8.775-4.632 16.221-11.294 24.526-16.655-1.458-4.512-.978-11.359-6.717-12.678-58.391-21.279-116.781-42.594-175.208-63.77m1137.532.166c-1.984 6.865-5.666 13.398-11.82 17.292 5.998.397 12.337 1.043 17.172 5.066 5.416 5.066 9.273 12.429 8.461 20.042.351 8.083-5.167 15.077-11.746 19.146 5.075 1.513 10.99 2.344 14.727 6.57 8.12 7.317 9.781 20.245 4.448 29.665-2.122 4.641-6.93 6.93-10.833 9.836 5.896 1.993 12.918 3.755 16.332 9.569 6.192 8 6.265 19.958.646 28.291-3.091 3.931-7.603 6.256-11.765 8.849 4.152 1.218 8.554 2.51 11.672 5.721 9.052 7.253 9.901 21.333 4.005 30.81-2.833 5.029-8.424 7.437-13.38 9.818 1.707.757 3.442 1.513 5.075 2.491 11.995 5.896 15.446 22.902 8.295 33.827-3.396 5.582-9.689 8.028-15.4 10.501 11.386 4.254 18.851 17.375 14.588 29.315-2.362 9.596-11.488 16.028-21.038 16.886 13.25 4.586 19.008 21.961 11.885 33.901-3.46 7.317-11.654 10.611-19.091 12.208 4.651 3.811 9.522 8.148 11.063 14.201 2.168 9.559-1.264 20.549-9.578 26.141-4.245 3.903-10.334 3.276-15.576 4.032 3.562 2.925 6.625 6.348 9.661 9.818 4.254-1.892 8.415-4.014 12.484-6.293 36.06-20.798 69.887-47.539 92.244-83.165 12.069-19.829 20.706-41.679 34.575-60.42 12.346-16.6 28.429-30.884 47.511-39.206 8.305-3.931 17.301-5.952 26.039-8.701-31.354-5.647-58.63-25.725-76.715-51.488-12.558-17.033-20.161-36.955-30.57-55.243-12.752-23.169-32.378-41.624-53.186-57.541-16.081-11.602-32.469-22.961-50.185-31.939M133.777 712.357c-14.874 27.506-26.86 58.021-51.534 78.597-15.594 14.182-35.017 23.446-55.493 28.032 22.062 4.789 43.433 14.764 59.156 31.299 19.802 18.565 30.939 43.7 43.525 67.211 8.461 16.249 19.866 30.837 32.941 43.635 19.34 19.977 42.104 36.392 66.418 49.772-.166-5.85-.554-11.912 1.476-17.495 2.316-4.715 6.745-7.806 10.639-11.091-10.537.544-21.426-6.293-23.76-16.867-3.848-11.026 1.818-23.788 12.595-28.226-9.458-1.218-18.454-7.216-21.444-16.581-4.438-11.469 2.519-24.424 13.121-29.555-6.385-1.929-13.287-5.149-16.304-11.451-3.811-5.998-3.543-13.675-1.799-20.272 1.652-7.419 8.72-11.377 14.717-14.976-8.111-2.648-15.594-9.07-17.292-17.689-1.993-6.699.341-13.85 3.755-19.635 3.294-4.89 8.904-7.114 14.21-9.07-5.463-2.934-11.331-6.025-14.238-11.811-3.451-8.221-3.488-18.565 2.141-25.864 3.322-5.149 9.384-7.373 14.893-9.255-3.58-2.288-7.649-4.189-9.91-8-6.967-8.71-5.739-22.431 2.03-30.228 3.746-4.678 9.892-5.869 15.216-7.815-3.405-2.159-6.625-4.752-8.886-8.129-8.175-11.359-3.128-29.878 10.048-34.999 3.368-1.689 7.188-1.855 10.86-2.113-4.743-3.063-9.2-7.004-11.063-12.503-3.451-7.382-.424-15.649 2.796-22.542-38.09 22.246-76.641 48.303-98.814 87.621m1212.078-79.742c-53.924 19.848-107.986 39.317-161.91 59.146 10.455 7.723 21.158 15.151 31.05 23.612 6.773-.794 13.269-2.879 19.857-4.614 46.884-12.531 93.73-25.2 140.641-37.656-1.993-5.601-4.318-11.7-2.261-17.689.83-7.013 6.478-11.635 11.829-15.456-4.909-.692-10.288-.074-14.57-2.999-4.152-2.095-6.524-6.358-10.298-8.867-5.028.5-9.614 2.991-14.338 4.523m-643.497 2.408c-20.549 7.88-38.579 22.321-50.639 40.729-14.275 20.365-20.42 47.382-11.949 71.299 20.844-49.559 62.874-90.362 114.058-107.497a22.36 22.36 0 0 0 6.155-3.073c-17.69-9.55-39.217-8.184-57.625-1.458m99.589-3.829c1.098 16.711 2.851 33.366 4.032 50.067 3.599-.36 7.225-.701 10.842-1.015.092-16.628.065-33.255 0-49.873-4.982.092-9.937.341-14.874.821m15.862-.83c-.083 16.618-.074 33.246.018 49.873 3.682.203 7.428.452 11.146.747 1.606-16.554 2.694-33.144 4.355-49.689-5.175-.461-10.361-.738-15.519-.931m-32.443 2.842c2.602 16.572 5.767 33.043 8.591 49.587 3.34-.554 6.69-1.033 10.058-1.55-1.089-16.701-2.907-33.338-3.949-50.03a211.812 211.812 0 0 0-14.7 1.993m49.209-2.141c-.757 16.757-2.98 33.403-3.977 50.15 3.543.286 7.123.747 10.694.812 2.584-16.295 5.583-32.526 8.563-48.757-5.066-.978-10.131-1.919-15.28-2.205m-65.578 5.712c4.208 16.323 8.923 32.507 12.9 48.895 3.414-.812 6.791-1.698 10.215-2.547-2.851-16.664-6.016-33.264-8.701-49.938a449.318 449.318 0 0 0-14.414 3.59m82.187-3.498c-2.694 16.351-5.629 32.655-8.443 48.987 3.516.803 7.022 1.495 10.611 1.984 3.903-16.046 8.6-31.889 12.512-47.935-4.899-.959-9.808-2.039-14.68-3.036m36.493 8.563c53.564 20.881 96.24 66.98 113.458 121.79 10.621-16.286 11.276-37.416 5.73-55.612-7.372-23.982-23.834-44.937-45.158-58.085-21.48-14.164-50.15-19.119-74.03-8.093m-134.615-.184c5.61 15.732 11.728 31.289 17.033 47.133 3.34-.692 6.644-1.513 9.975-2.27-3.516-16.72-8.849-32.987-12.909-49.569-4.734 1.449-9.44 3.045-14.099 4.706m114.592-4.651c-4.328 15.954-8.572 31.917-12.927 47.862a306.748 306.748 0 0 0 10.058 2.962c6.108-15.197 11.294-30.745 16.83-46.154-4.641-1.643-9.273-3.24-13.961-4.67m522.602 3.147c-13.001 2.704-20.438 19.626-13.296 30.948 5.195 10.934 20.89 15.059 30.459 7.419 8.563-5.389 10.03-17.107 6.441-25.864-3.285-9.283-13.97-15.115-23.604-12.503m-652.752 7.778c7.289 15.289 14.588 30.57 21.389 46.081 3.1-1.292 6.21-2.565 9.329-3.829-4.54-16.323-11.22-31.972-16.96-47.889-4.66 1.688-9.227 3.635-13.758 5.637m146.067-5.573c-5.859 15.271-11.331 30.69-16.923 46.071 3.285 1.329 6.57 2.657 9.882 3.958 6.634-14.93 13.785-29.619 20.604-44.457-4.474-2.01-8.949-3.948-13.563-5.572m-160.756 13.066c8.701 14.662 16.877 29.638 25.504 44.337 3.054-1.707 6.155-3.322 9.273-4.9-6.985-15.428-14.579-30.57-21.361-46.09-4.595 1.965-8.987 4.355-13.416 6.653m175.695-6.727c-6.21 15.022-13.822 29.416-20.208 44.364 3.091 1.559 6.201 3.091 9.31 4.651 8.369-13.988 16.314-28.226 24.388-42.381-4.429-2.371-8.913-4.622-13.49-6.634m-177.153 7.834c-4.226 2.482-8.434 5.02-12.623 7.557 9.624 14.238 19.58 28.254 29.564 42.251a645.471 645.471 0 0 1 8.378-5.822c-8.323-14.736-16.646-29.462-25.319-43.986m192.378-.203c-8.12 14.127-16.738 27.986-24.341 42.399 2.814 1.513 5.37 3.82 8.554 4.567 1.689-1.033 2.842-2.722 4.023-4.272 7.889-11.645 15.982-23.142 24.055-34.657-3.986-2.842-8.166-5.435-12.291-8.037m-679.64 5.979c-9.753 2.279-17.181 12.595-16.046 22.625-.48 10.86 10.224 21.186 21.14 19.377 13.296.277 23.64-14.985 19.082-27.294-2.418-10.288-13.915-17.033-24.176-14.708m461.536 12.263c10.879 13.038 21.712 26.141 32.775 39.031 2.731-2.141 5.509-4.254 8.258-6.385-9.929-13.905-19.608-27.977-29.546-41.864-3.828 3.064-7.694 6.09-11.487 9.218m231.548-9.135c-8.747 13.518-18.418 26.417-27.442 39.751 2.547 1.882 4.983 3.968 7.723 5.656 2.325-.794 3.857-2.87 5.389-4.669 8.48-10.897 17.947-20.983 26.261-32.009-3.894-3.036-7.889-5.924-11.931-8.729m-668.493 6.349c2.501 7.529 3.792 16.36-1.024 23.308-3.359 6.671-10.519 9.292-16.987 11.894 4.9 5.795 8.563 14.994 17.495 14.634 41.033 7.179 82.085 14.265 123.063 21.749 1.689.277 3.589.351 4.937-.923 11.691-9.052 23.216-18.325 35.23-26.971-21.933-6.616-44.281-11.746-66.316-18.002-32.186-8.388-64.195-17.403-96.398-25.689m959.188 45.508c9.569 8.074 19.303 15.963 28.604 24.36 2.03 1.255 3.691 4.328 6.478 3.774a13107.198 13107.198 0 0 1 135.271-23.852c-3.543-6.966-6.791-14.902-3.912-22.782 1.356-6.431 6.957-10.501 11.746-14.404-3.728-.794-7.529-1.642-11.063-2.925-3.146-1.726-5.619-4.392-8.295-6.708-53.002 13.933-105.967 28.069-158.829 42.537m-534.229-31.418c11.774 12.152 23.982 23.88 35.746 36.042 2.482-2.381 4.872-4.872 7.271-7.336-10.593-13.278-21.647-26.168-32.6-39.151a528.776 528.776 0 0 0-10.417 10.445m256.997-10.058c-10.344 12.245-20.688 24.498-30.856 36.909 2.574 2.205 5.13 4.392 7.714 6.625 11.516-11.23 22.865-22.634 34.131-34.122a369.784 369.784 0 0 1-10.989-9.412m-127.982 6.856c-25.79 1.181-51.285 9.476-72.36 24.471-39.373 26.113-63.243 73.642-60.743 120.812 1.283 36.78 18.159 72.747 45.61 97.264 30.302 28.005 73.532 41.458 114.362 35.1 38.118-5.02 73.578-26.943 95.372-58.574 19.774-28.291 28.743-64.065 23.64-98.298-5.905-49.495-41.384-93.85-87.871-111.409-18.324-7.336-38.3-10.695-58.01-9.366m592.268 1.716c-8.812.305-16.591 6.662-19.174 14.985-3.728 10.159 2.436 22.413 12.401 26.224 10.823 5.601 25.329-2.288 27.552-14.007 3.636-12.964-6.809-28.005-20.779-27.202m-452.069 2.353c-11.165 11.534-22.727 22.662-33.882 34.187 2.344 2.528 4.697 5.001 7.059 7.539 12.651-9.735 24.526-20.401 36.817-30.579-3.36-3.71-6.663-7.447-9.994-11.147m-281.025 10.611c12.641 11.414 25.947 22.062 38.966 33.043 2.491-2.288 4.937-4.641 7.419-6.948-11.931-12.115-23.917-24.175-36.106-36.023-3.441 3.294-6.855 6.616-10.279 9.928m510.745-4.069c-5.435 17.855-11.857 35.405-19.017 52.641 29.684 25.117 57.319 52.623 82.62 82.15-23.806 23.898-49.808 45.518-76.245 66.436 6.016 16.332 11.276 32.941 16.101 49.67 51.183-34.187 98.925-73.403 143.253-116.069-43.256-50.565-92.382-96.341-146.712-134.828M310.93 811.291c13.306 15.649 27.248 30.773 42.03 45.066 29.444 30.302 61.564 57.947 95.428 83.202 4.955-15.917 10.307-31.732 16.877-47.059.766-2.214 1.984-4.521 1.522-6.911-2.233-2.713-5.01-4.881-7.548-7.271a619.034 619.034 0 0 1-62.256-64.507c22.597-21.693 46.191-42.362 70.865-61.675-7.262-17.504-13.712-35.331-19.146-53.481-49.154 33.319-95.41 71.03-137.772 112.636m350.967-100.069c14.155 9.486 27.746 19.802 42.076 29.047 1.91-2.722 3.857-5.398 5.804-8.083-13.01-10.934-25.855-22.062-39.003-32.83-3.073 3.866-5.998 7.852-8.877 11.866m265.605 18.325c2.122 2.824 4.235 5.684 6.468 8.461 13.444-8.406 26.131-17.929 39.022-27.137-2.98-3.783-5.924-7.631-8.849-11.423-12.622 9.532-24.175 20.374-36.641 30.099m-404.281 11.479c-12.77 23.04-19.562 49.504-18.316 75.894-.138 38.505 15.935 78.542 47.779 101.499 3.562-11.506 9.366-22.071 16.544-31.714-17.716-25.624-25.218-57.947-20.438-88.757 2.168-21.647 10.86-42.408 24.157-59.571-5.924-10.98-10.74-22.662-12.918-34.999-15.373 9.006-27.812 22.367-36.808 37.648m-286.948-34.685c-.415 1.301 1.799 1.762 2.233.609.406-1.32-1.809-1.791-2.233-.609m-9.532 1.301c-13.167 1.661-21.684 18.039-16.102 29.924 3.23 9.412 14.441 15.271 23.982 11.995 9.236-2.325 16.332-11.635 15.659-21.204.406-12.033-11.636-22.875-23.539-20.715m426.279 17.541c14.893 8.212 29.232 17.375 44.254 25.356 1.679-2.943 3.488-5.822 5.361-8.655-13.878-9.993-28.051-19.571-42.012-29.426-2.648 4.171-5.259 8.369-7.603 12.725m282.639 14.468c1.661 3.063 3.377 6.044 5.093 9.117a2128.222 2128.222 0 0 0 41.107-23.631c-2.491-4.254-5.066-8.48-7.585-12.697-12.871 9.07-25.835 18.011-38.615 27.211m179.534-1.79c-1.098 3.11-2.777 6.874-.351 9.818 23.825 35.599 27.848 81.836 16.249 122.482-2.722 10.021-7.705 19.146-11.645 28.687-1.024 8.775 3.922 16.803 5.776 25.172 25.117-16.212 48.794-34.547 71.788-53.619 15.825-13.749 32.083-27.1 46.468-42.399-15.861-19.506-33.928-37.029-51.829-54.616-21.998-20.042-44.466-39.723-68.992-56.628-2.509 7.022-4.807 14.127-7.464 21.103m-863.483-15.89c.369 7.557.544 16.231-5.167 21.988-2.824 4.641-9.541 4.927-12.558 9.033 5.481 4.983 10.676 10.334 13.047 17.559 28.697 3.276 57.541 5.066 86.284 7.834 3.986-.092 9.181 1.624 12.309-1.762 12.032-10.75 24.526-20.946 36.817-31.391-43.535-7.999-87.198-15.261-130.732-23.261m228.346 22.958c-28.198 21.398-55.253 44.365-80.572 69.112 6.68 8.175 13.822 15.963 20.937 23.769 28.687 29.896 59.349 58.058 92.807 82.556 2.74-9.384 6.348-18.464 9.393-27.728 1.2-3.174-1.098-6.053-2.408-8.757-11.349-20.337-17.67-43.636-17.163-66.971-.369-23.059 3.543-46.607 14.053-67.303.978-2.971 3.774-5.924 2.584-9.218-1.975-6.284-4.088-12.531-5.933-18.851-11.756 7.012-22.727 15.234-33.698 23.391m607.501-23.17c-4.06 11.193-9.338 22.044-16.784 31.391 6.468 10.27 12.466 21.038 16.092 32.692 11.802 38.699 5.601 83.82-19.811 115.885 6.228 10.713 10.473 22.441 13.232 34.501 6.09-3.488 11.894-7.492 16.914-12.448 27.848-26.436 40.083-66.381 37.942-104.12-.803-37.25-16.72-75.728-47.585-97.901m300.928 1.772c-45.204 7.317-90.215 15.945-135.373 23.576 9.679 9.033 19.349 18.076 28.521 27.654 2.584 2.002 4.9 5.905 8.655 5.481 36.125-3.377 72.277-6.478 108.429-9.522-4.863-6.791-10.925-15.206-7.963-23.945 1.126-8.12 8.12-13.296 14.616-17.273-5.831-1.404-11.21-4.393-16.885-5.971m-736.775 2.86c-2.261 4.512-4.484 9.043-6.607 13.619 15.612 6.754 30.948 14.164 46.302 21.5 1.569-3.23 3.147-6.45 4.651-9.707-15.013-8.055-29.62-16.84-44.346-25.412m290.611 23.65c1.421 3.257 3.027 6.413 4.604 9.624 14.219-6.514 28.337-13.26 42.611-19.645-2.104-4.531-4.318-9.024-6.542-13.481-13.489 7.945-27.192 15.539-40.673 23.502m467.34-19.377c-10.805 1.467-19.313 13.029-17.43 23.825 1.43 12.401 15.409 22.561 27.497 17.587 8.212-2.916 14.718-11.728 13.453-20.641.499-11.904-11.487-23.687-23.52-20.771m-839.16 154.694c9.2-10.879 20.558-19.719 32.554-27.294-10.713-27.414-10.657-59.156 1.329-86.155-12.429-8.092-22.459-19.322-30.514-31.695-31.641 41.098-33.007 102.606-3.369 145.144m73.762-144.028a1154.139 1154.139 0 0 0-5.61 13.592c15.898 6.062 31.917 11.811 47.889 17.707 1.329-3.285 2.657-6.561 3.949-9.845-15.483-6.995-30.837-14.266-46.228-21.454m303.733 19.7c1.273 3.313 2.593 6.634 3.885 9.956 14.883-4.872 29.453-10.667 44.189-15.954-1.606-4.475-3.386-8.877-5.158-13.287-14.644 5.629-28.503 13.122-42.916 19.285m-727.723-7.335c-8.969 1.476-16.157 9.845-16.101 18.962-2.39 12.106 8.544 25.319 21.204 23.04 11.202.249 20.595-11.248 19.368-22.118.378-12.189-12.651-22.689-24.471-19.884m816.535 28.419c10.916 25.799 10.99 55.871.489 81.809-1.19 2.436-.581 5.176 1.781 6.625a102.736 102.736 0 0 1 26.768 28.992c8.489-9.209 13.887-20.761 18.021-32.471 12.614-36.844 8.415-80.009-14.228-112.166-9.532 10.639-20.771 19.608-32.831 27.211M638.09 756.878c-1.606 4.614-3.211 9.209-4.807 13.832 16.461 4.66 32.969 9.218 49.624 13.167.978-3.174 2.012-6.275 3.036-9.412-15.89-6.007-31.788-12.051-47.853-17.587m315.11 15.825a331.1 331.1 0 0 0 2.971 10.251c15.096-3.802 30.118-7.908 45.093-12.208-1.476-4.687-2.814-9.366-4.429-13.988-14.486 5.481-29.158 10.464-43.635 15.945m-706.15-.24c-.747 5.103-.766 10.648-4.226 14.847-3.036 4.964-8.369 7.723-12.992 10.962 3.783 2.741 7.825 5.278 10.704 9.052 2.943 4.134 4.291 9.144 4.918 14.127 23.852.12 47.714.175 71.566-.046-2.759-3.654-5.712-7.151-8.554-10.722 10.491-9.947 21.296-19.552 31.585-29.702-11.691-2.021-23.566-2.325-35.349-3.516-19.239-1.413-38.413-3.692-57.652-5.002m386.113.129c-1.283 4.771-2.104 9.633-2.916 14.505 16.535 3.193 33.098 6.274 49.772 8.692.757-3.359 1.587-6.69 2.298-10.048-16.434-4.217-32.794-8.665-49.154-13.149m323.792 12.125c.692 3.377 1.366 6.754 2.095 10.168 15.419-1.984 30.634-5.324 45.998-7.723-1.227-4.863-2.205-9.781-3.469-14.625-14.838 4.207-29.777 8.009-44.624 12.18m434.261-11.553c-34.002 3.349-68.042 6.201-102.09 8.941 12.208 11.783 23.64 24.304 34.851 37.029 2.021 3.386 6.422 2.168 9.578 2.519 26.196-.166 52.401-.138 78.607-.129-3.091-1.523-6.192-3.128-9.061-4.983-7.815-5.426-11.285-16.074-8.203-25.07 1.569-8.046 9.116-12.614 15.566-16.609-6.201-2.058-12.761-2.722-19.248-1.698m-785.615.268c-5.675 12.817-8.212 26.824-9.117 40.747.406 14.468 2.824 29.066 8.314 42.519 7.271-3.875 14.662-7.52 22.007-11.257-3.146-19.802-1.772-39.926 1.587-59.589-7.796-3.765-15.335-8.056-22.791-12.42m809.477 3.165c-12.66.563-22.025 14.634-18.907 26.584 1.799 9.015 10.473 15.917 19.534 16.424 11.802 1.126 22.062-10.639 21.13-22.044.471-11.534-10.149-22.007-21.757-20.964m-407.124 20.078c3.414 18.251 1.135 36.817-.258 55.142 9.144 4.577 18.095 9.513 26.787 14.911 11.46-26.132 11.451-56.877.849-83.266-8.997 4.678-17.966 9.421-27.378 13.213m-378.316-7.52c-.71 4.798-1.329 9.606-1.762 14.459 16.84 1.707 33.707 3.285 50.611 4.245.332-3.368.637-6.727.932-10.085-16.572-3.027-33.098-6.303-49.781-8.619m330.279 7.658c.323 3.635.664 7.289.997 10.934 15.373-1.476 30.745-3.11 46.173-3.922-.609-4.918-1.246-9.827-1.965-14.708-15.115 2.308-30.081 5.491-45.205 7.696m-734.034.831c.138.295.397.895.526 1.19 2.399.563.784-3.211-.526-1.19m-6.524 2.242c-7.456.766-13.315 6.745-16.018 13.444-4.844 10.907 2.085 25.587 13.776 28.438 12.069 3.755 26.325-6.505 25.827-19.359 1.762-12.936-10.907-24.774-23.585-22.523m408.194 5.758c-.332 4.9-.48 9.79-.535 14.727 16.84.517 33.698.212 50.556.148.24-3.543.489-7.059.646-10.602-16.859-1.745-33.735-3.516-50.667-4.273m333.25 4.023c.434 3.626.867 7.216 1.227 10.87 15.271.111 30.551.101 45.832.046-.009-4.973-.009-9.928 0-14.874-15.714.996-31.391 2.463-47.059 3.958m-334.182 12.826c.304 4.641.646 9.273 1.033 13.924 16.821-.849 33.569-2.685 50.334-4.254a285.979 285.979 0 0 1-.646-9.67 4420.345 4420.345 0 0 0-50.721 0m335.271-.009c-.323 3.349-.646 6.699-.95 10.076 15.585 1.809 31.216 3.349 46.911 3.922 0-3.506 0-10.51.009-14.007a4486.634 4486.634 0 0 0-45.97.009m452.374.396c-6.099.895-11.875 4.448-15.068 9.772-8.526 10.879-1.439 29.213 11.931 32.157 12.826 4.208 27.036-7.852 25.707-21.112.507-11.636-10.796-22.939-22.57-20.817m-1168.895.637c-.923 3.1-1.864 6.219-3.46 9.052-2.316 5.463-7.908 8.046-12.401 11.451 5.047 3.857 11.516 6.496 14.404 12.512 2.547 4.54 2.482 9.818 3.22 14.837 36.198-3.073 72.378-6.265 108.558-9.43-12.77-12.457-24.775-25.661-36.937-38.708-24.462.323-48.932-.092-73.384.286m1083.137-.314c.867 1.818 1.873 3.617 2.27 5.629-10.916 11.599-23.492 21.564-34.86 32.72 1.089 2.768 5.499-.083 7.142 1.799 29.712 2.648 59.46 5.001 89.172 7.742 6.487.48 12.641-2.021 18.787-3.737-4.521-2.584-9.32-4.992-12.586-9.153-4.724-6.265-5.5-14.828-3.303-22.201 1.864-5.389 6.431-8.932 10.519-12.595-25.727-.158-51.434.138-77.141-.204M627.553 838.89c.683 4.687 1.458 9.366 2.187 14.062 16.544-2.621 33.089-5.26 49.532-8.48-.424-3.368-.849-6.819-1.144-10.187a3858.42 3858.42 0 0 0-50.575 4.605m333.647-4.291c-.544 3.58-.969 7.197-1.412 10.805 15.142 2.676 30.256 5.592 45.499 7.631.701-4.798 1.264-9.633 1.569-14.468a1261.215 1261.215 0 0 0-45.656-3.968m-742.754 12.364c-12.77 3.23-18.224 19.534-12.411 30.828 3.479 6.551 10.639 11.968 18.408 11.063 11.285.323 21.712-10.805 20.318-22.09.333-12.945-13.822-23.75-26.315-19.801m411.755 8c.83 4.863 1.753 9.735 2.943 14.542 16.249-4.235 32.452-8.637 48.646-13.057-.692-3.349-1.356-6.763-1.91-10.113-16.544 2.954-33.079 6.026-49.679 8.628m-59.488 33.218c-12.604 16.046-20.724 36.374-19.7 56.997-.471 18.916 4.678 37.564 13.056 54.413 19.479 38.358 55.492 68.937 97.901 78.247 31.954 6.81 66.713-2.27 91.414-23.594 13.472-11.958 23.437-27.34 31.169-43.488-2.648-.258-5.379-.646-7.991-.84-20.706 26.519-56.554 40.489-89.679 33.781-21.481-3.331-40.821-14.681-57.07-28.669-16.203-14.745-29.463-33.07-36.669-53.859-8.148-22.607-8.055-48.849 3.359-70.339 7.133-14.33 19.156-25.356 31.991-34.556-.627-2.971-1.227-5.915-1.855-8.849-20.872 9.993-41.476 22.265-55.926 40.756m388.549-40.858c-.683 3.414-1.32 6.902-2.095 10.316 14.828 3.875 29.592 7.972 44.392 11.977 1.329-4.66 2.39-9.403 3.516-14.108-15.132-3.46-30.486-5.795-45.813-8.185m47.511 6.515c-.175 2.445-.747 4.531-.757 7.105 15.668 10.796 27.552 26.75 33.947 44.632 10.131 27.995 4.78 60.014-10.584 85.093-20.531 34.076-57.218 59.682-97.476 62.247-18.233.729-36.494-4.863-51.23-15.603-10.417-6.948-18.141-17.043-25.181-27.22-2.75.434-5.592.738-8.295 1.236 4.568 13.195 12.457 24.96 20.254 36.438 17.347 24.452 45.915 41.753 76.346 41.799 42.15.101 81.845-23.225 107.303-55.963 19.562-24.572 31.806-56.305 28.226-88.018-1.467-18.408-8.738-35.894-18.87-51.174-13.683-18.215-32.82-31.742-53.683-40.572M681.818 858.7c-16.138 3.755-32.12 8.166-48.074 12.651 1.218 4.734 2.777 9.375 4.337 14.035 15.797-5.38 31.336-11.497 47.059-17.107-1.338-3.092-.997-7.004-3.322-9.579m-92.355 75.904c1.781 24.932 13.269 48.508 29.693 67.091 20.18 22.764 48.535 40.277 79.576 41.375 28.734 2.076 58.261-10.971 75.765-33.901-7.225-1.975-14.302-4.447-21.463-6.607-4.272-1.43-8.628.784-12.807 1.458-11.488 3.396-23.788 2.205-35.294-.48-37.499-9.689-68.005-42.325-75.672-80.212-3.34-13.878-.074-28.078 4.272-41.283-.526-7.88-2.999-15.539-5.001-23.17-25.145 15.853-42.345 45.611-39.069 75.729m367.677-75.046a571.568 571.568 0 0 0-3.783 9.901c14.348 5.582 28.863 10.74 43.377 15.843 1.596-4.623 3.211-9.218 4.614-13.896-14.672-4.189-29.491-7.834-44.208-11.848m48.304 3.184c-1.762 8.12-6.441 15.991-5.001 24.517 2.464 9.283 6.45 18.556 5.592 28.392-.037 26.371-13.453 51.349-32.554 68.946-16.508 15.622-38.265 26.371-61.167 27.451-11.765.443-23.4-2.261-34.039-7.16-7.17-.092-13.942 3.432-20.909 4.881 5.878 8.424 12.281 16.609 20.438 22.994 12.586 10.851 28.863 16.812 45.296 18.353 33.283.987 65.541-15.022 87.779-39.262 16.535-17.237 28.567-39.317 31.788-63.151 4.577-32.591-10.048-67.174-37.223-85.961m-758.606 10.759c-1.716 2.87-3.396 5.749-5.389 8.443-2.362 2.87-5.859 4.771-7.695 8.083 5.26 3.1 11.525 5.186 14.671 10.879 4.549 6.238 3.165 14.062 2.99 21.26 46.957-8.941 94.164-16.544 141.167-25.273-11.82-10.925-23.677-21.795-35.165-33.052-36.863 3.182-73.716 6.449-110.579 9.66m1044.641-8.212c-12.475 10.51-24.904 21.093-37.416 31.566 41.79 8.037 83.792 14.957 125.675 22.533 2.897-.249 6.358 2.067 9.246.692 5.287-2.888 10.565-6.016 16.572-7.216-8.71-4.097-15.373-12.189-15.696-22.136.6-6.45 3.857-12.143 7.207-17.523-29.472-3.165-59.082-4.752-88.526-8.12-5.648-.129-11.71-1.586-17.062.204m116.309 4.632c-12.125 2.676-19.552 17.799-14.201 29.093 4.115 10.759 18.095 16.212 28.328 10.851 7.022-4.281 12.346-12.466 11.266-20.946.517-12.604-13.333-22.984-25.393-18.998m-769.07 17.384c1.753 4.549 3.552 9.07 5.527 13.536 15.16-6.994 30.376-13.859 45.361-21.223-1.135-3.11-2.251-6.228-3.276-9.366-16.11 4.993-31.806 11.212-47.612 17.053m314.085-15.982c-1.319 3.377-2.731 6.727-4.134 10.067 13.942 6.478 27.922 12.872 41.818 19.46 1.965-4.54 3.903-9.08 5.601-13.721a3958.22 3958.22 0 0 1-43.285-15.806m-307.617 30.958c2.085 4.503 4.272 8.96 6.496 13.416 14.505-8.388 29.269-16.341 43.497-25.2-1.55-3.008-3.082-6.016-4.678-8.997-15.188 6.755-30.127 14.035-45.315 20.781m302.801-19.055c-1.753 3.193-3.479 6.413-4.937 9.762 13.647 6.911 26.436 15.345 39.852 22.69 2.344-4.448 4.835-8.821 6.865-13.426-14.062-6.061-27.783-12.843-41.78-19.026m-312.859.452c-1.67 4.521-3.285 9.07-4.401 13.785-2.501 10.279-.48 21.001 1.513 31.188 5.093 18.833 15.797 36.005 30.256 49.089 11.866 11.728 26.87 20.023 43.017 24.111 13.296 4.226 27.589 2.473 40.867-.96-7.206-4.466-15.299-7.308-22.625-11.552-32.554-18.159-59.469-46.108-76.9-79.013-4.548-8.599-7.842-17.752-11.727-26.648m287.862 98.418c-13.25 9.135-28.226 15.133-42.814 21.721 16.554 7.585 36.005 8.36 53.213 2.547 16.434-4.964 31.123-14.883 42.934-27.22 14.865-14.883 25.347-34.611 27.497-55.677 1.246-12.484-1.2-24.923-5.389-36.632-14.366 38.624-40.802 72.756-75.441 95.261m-453.841-94.459c-17.707 41.236-29.02 84.955-37.546 128.923-12.66 64.6-18.445 130.399-19.866 196.161 33.679 4.374 67.7 2.427 101.555 2.796 38.145-1.412 76.272-4.623 113.993-10.611 41.79-6.856 83.46-16.443 122.593-32.895-10.122-13.915-20.641-27.552-29.97-42.03-57.513 16.277-117.564 21.075-177.098 21.905-20.318-.351-40.618-1.467-60.89-2.704-.065-9.873-.166-19.737.231-29.582 3.506-66.519 11.903-133.13 30.321-197.297-14.709-11.229-29.214-22.708-43.323-34.666m-243.34 4.531c-11.746 1.541-19.589 15.133-16.166 26.27 1.79 10.99 14.293 18.962 24.978 15.659 10.51-2.528 17.587-13.952 15.28-24.517-1.485-11-13.093-19.719-24.092-17.412m298.879.258c-8.36 21.296-14.108 43.506-19.635 65.67-14.293 62.007-20.789 125.656-22.145 189.204 26.215 2.196 52.577 3.497 78.865 2.159 61.324-2.012 123.34-8.627 181.647-28.669-10.953-7.16-22.136-14.348-30.468-24.627-4.512-4.512-7.105-10.602-11.589-15.05-7.926.258-15.88.83-23.797.36-16.674-.544-32.72-6.007-47.695-13.02-39.732-20.623-70.773-58.999-79.336-103.28-2.399-14.828-1.725-30.09 1.458-44.743-10.659-7.704-19.167-17.771-27.305-28.004m128.424 24.572c2.233 4.337 4.761 8.471 7.206 12.706 14.099-8.95 27.386-19.091 41.31-28.318-1.633-3.026-3.368-6.035-5.001-9.015-14.855 7.575-28.982 16.479-43.515 24.627m288.6-22.782a381.127 381.127 0 0 0-5.112 9.163c12.346 8.997 25.07 17.476 37.444 26.454 2.796-4.18 5.398-8.489 7.926-12.835-13.693-7.105-26.5-15.797-40.258-22.782m184.175 31.806c10.953 43.728 17.31 88.563 19.193 133.601.84 33.513 1.246 67.137-1.707 100.577-74.491-1.356-149.232-9.753-221.213-29.472-10.325 14.478-21.915 27.968-32.932 41.892 11.811 4.78 23.806 9.08 35.931 13.01 90.879 27.968 186.224 38.773 281.006 41.006 2.224-18.076 2.085-36.309 2.768-54.468.581-53.472-2.168-107.091-10.648-159.945-6.072-39.64-15.613-78.865-30.026-116.328-13.961 10.279-27.986 20.457-42.372 30.127m125.758-27.561c-11.755 9.449-23.963 18.316-35.755 27.709 52.005 14.533 104.351 27.912 156.411 42.288 3.469 1.467 5.832-2.242 8.314-3.949 4.143-4.097 9.845-5.924 15.483-6.782-5.795-3.562-10.777-8.858-12.383-15.622-1.107-6.81.674-13.582 3.128-19.866-45.094-7.742-90.114-15.926-135.198-23.778m-994.113 24.258c-8.092-.231-12.3 7.317-17.679 11.885 9.375 2.971 18.824 9.384 20.706 19.755 2.215 6.339-1.283 12.669-3.534 18.519 57.172-15.4 114.418-30.551 171.543-46.108-11.368-9.061-22.764-18.104-33.476-27.931-45.952 7.317-91.654 16.212-137.56 23.88m404.605 8.129c2.417 4.208 5.389 8.009 8.268 11.922 13.37-9.938 25.845-21.047 38.505-31.843-2.076-2.842-4.078-5.638-6.21-8.406-13.408 9.596-26.963 18.998-40.563 28.327m439.649-8.941c-6.062 6.459-13.49 11.359-20.817 16.221 1.55 19.202.729 39.013-6.284 57.172-14.191 39.317-46.302 71.087-84.687 86.994-21.822 9.356-46.459 11.211-69.564 5.961-8.692 11.691-19.746 21.287-31.779 29.398 27.543 10.104 56.028 17.495 84.734 23.474 55.428 10.962 111.898 16.627 168.388 17.236 2.62-30.376 3.479-60.955 1.615-91.405-2.178-55.354-9.486-110.874-26.27-163.811-5.278 6.109-9.532 13.094-15.336 18.76m-166.764-17.218c-2.215 2.86-4.346 5.786-6.45 8.729 11.958 9.541 23.4 19.709 35.257 29.389 3.23-3.811 6.376-7.714 9.209-11.82-13.028-8.25-25.181-17.763-38.016-26.298m-225.199 8.037c-12.789 10.353-25.292 21.066-37.85 31.695 3.229 3.617 6.441 7.216 9.606 10.925 11.977-11.728 23.649-23.779 35.691-35.451-2.391-2.482-4.928-4.844-7.447-7.169m217.153 1.956c-2.353 2.482-4.734 4.937-7.077 7.437 10.833 11.266 22.136 22.062 33.024 33.283 3.368-3.543 6.588-7.225 9.772-10.925-11.894-9.947-23.53-20.217-35.719-29.795m477.149.535c-12.494.877-22.69 14.671-18.547 26.824 2.085 8.664 10.288 15.326 19.156 16 11.405.471 21.177-9.652 21.619-20.761 1.034-12.033-9.781-24.111-22.228-22.063m-720.766 41.356c3.645 3.396 7.326 6.791 11.128 10.039 10.058-13.029 21.112-25.246 31.391-38.09a470.338 470.338 0 0 0-7.105-7.031c-12.254 11.221-23.723 23.272-35.414 35.082m227.562-25.504c9.772 11.912 19.543 23.843 29.776 35.386a372.387 372.387 0 0 0 11.017-9.458c-11.008-11.266-22.118-22.422-33.403-33.384a182.987 182.987 0 0 0-7.39 7.456m300.337-2.122c-8.166 5.619-16.092 11.589-24.591 16.701.646 3.451.517 8.563 4.881 9.578 56.102 20.309 112.092 40.941 168.258 61.093 3.202-4.032 6.108-8.517 10.759-11.054 4.078-2.482 9.006-2.814 13.638-3.266-4.466-3.414-8.489-7.779-10.482-13.075-2.215-5.868-.24-12.217.978-18.058-51.257-13.749-102.524-27.46-153.753-41.283-3.165-.184-6.773-2.85-9.688-.636m-800.978 4.614c-49.901 13.564-99.903 26.768-149.832 40.258-3.949.775-7.4 2.851-10.593 5.195 5.296 2.15 11.1 3.543 15.548 7.336 4.9 4.844 8.904 11.589 7.963 18.768.332 7.437-5.01 13.278-9.089 18.888 22.118-6.92 43.672-15.529 65.495-23.308 35.654-12.918 71.225-26.049 106.934-38.819 2.399-1.089 5.582-1.808 6.588-4.568 1.947-5.158 3.119-10.556 4.577-15.852-5.675-4.143-10.87-9.116-17.033-12.484-6.994-.019-13.795 3.008-20.558 4.586m316.576-3.396c-10.058 12.752-20.521 25.181-31.243 37.379 3.7 3.331 7.695 6.311 11.626 9.375a18166.047 18166.047 0 0 0 28.641-40.932c-2.989-2.048-5.877-4.096-9.024-5.822m173.749 8.212c8.95 12.844 17.965 25.652 26.879 38.524 3.922-3.008 7.815-6.044 11.543-9.283-9.735-12.032-19.737-23.843-29.767-35.617-2.916 2.104-5.804 4.208-8.655 6.376m-667.424-.129c-9.569 1.698-16.766 12.032-15.087 21.647-.314 11.663 11.303 22.164 22.874 20.254 13.029-1.052 21.675-16.175 17.163-28.115-3.201-10.058-14.68-16.415-24.95-13.786m503.668-.443c-9.31 13.463-19.036 26.657-27.986 40.378 4.106 2.537 8.221 5.093 12.263 7.76 8.166-14.422 17.034-28.457 24.803-43.1-3.027-1.67-6.081-3.395-9.08-5.038m153.375 7.327c7.695 13.656 15.529 27.239 23.345 40.821 4.134-2.713 8.305-5.352 12.438-8.083-8.821-12.798-18.002-25.356-26.51-38.357-3.137 1.799-6.246 3.644-9.273 5.619m-143.059-.877c-7.336 14.588-16.757 28.014-24.037 42.639 4.208 2.436 8.526 4.697 13.001 6.625 6.8-14.939 13.859-29.767 20.706-44.678-3.174-1.633-6.431-3.137-9.67-4.586m131.774 6.718c6.551 14.164 13.232 28.291 19.626 42.537 4.623-1.947 8.978-4.438 13.379-6.837-8.092-13.444-15.28-27.432-23.769-40.637-3.035 1.716-6.154 3.303-9.236 4.937m-120.286-1.071c-7.013 14.865-14.514 29.555-20.577 44.844 4.355 1.753 8.701 3.617 13.14 5.213 5.822-15.262 11.414-30.607 16.877-45.988-3.174-1.282-6.321-2.703-9.44-4.069m108.743 5.693a1449.127 1449.127 0 0 0 16.175 44.235c4.604-1.559 9.107-3.396 13.665-5.121-6.376-14.477-13.518-28.604-19.755-43.137-3.377 1.311-6.726 2.667-10.085 4.023m-97.541-.581c-5.822 15.077-11.248 30.311-16.821 45.481 4.651 1.689 9.338 3.276 14.044 4.881 4.355-15.825 8.71-31.659 12.586-47.612-3.267-.951-6.515-1.919-9.809-2.75m95.613 1.264a340.606 340.606 0 0 0-9.938 2.833c3.811 15.409 7.954 30.754 12.152 46.062 4.651-1.43 9.301-2.75 14.016-4.005-4.964-15.123-10.666-29.988-16.23-44.89m323.469-.175c3.285 13.075 6.247 26.233 8.378 39.548 48.083 21.998 95.742 44.909 143.852 66.833 3.091-5.269 5.915-11.34 11.737-14.044 4.715-2.879 10.298-2.556 15.612-2.981-4.447-3.617-8.277-8.397-9.486-14.108-.498-4.383-.046-8.757.101-13.121-56.672-20.863-113.539-41.209-170.194-62.127m-407.677 2.842c-3.977 15.659-8.268 31.243-12.337 46.893 4.835 1.015 9.652 2.039 14.514 2.99 2.879-15.954 5.73-31.908 8.489-47.88-3.533-.757-7.104-1.459-10.666-2.003m62.311 2.86c1.919 15.797 5.296 31.363 7.677 47.096 4.863-1.024 9.698-2.067 14.579-3.036-3.58-15.502-8.323-30.699-12.328-46.099-3.33.6-6.643 1.31-9.928 2.039m547.608-1.458c-11.017 2.556-19.479 14.385-16.434 25.735 2.279 9.347 11.442 17.919 21.555 16.341 14.45-.129 23.437-18.039 17.642-30.533-3.155-8.94-13.859-13.37-22.763-11.543m-1119.677 63.484c8.351 3.645 16.738 10.381 17.393 20.115 1.901 8.415-2.851 15.446-7.363 21.887 5.481.323 11.433 2.916 16.683.129a35553.096 35553.096 0 0 1 126.514-58.934c3.119-1.91 7.945-2.971 8.489-7.234 2.796-12.761 5.582-25.522 8.987-38.127-56.848 20.863-113.789 41.467-170.703 62.164m521.827-61.841c-2.233 15.64-6.145 31.068-7.742 46.773 4.466 2.094 9.726 1.615 14.514 2.214 1.338-16.101 3.054-32.166 3.968-48.295-3.561-.388-7.178-.655-10.74-.692m37.38 1.642c1.532 15.686 3.331 31.382 3.903 47.151 4.881-.378 9.762-.84 14.662-1.19-1.993-15.982-5.49-31.705-8-47.594a306.64 306.64 0 0 0-10.565 1.633m-24.794-.793c-1.467 16.231-3.377 32.434-3.885 48.747 4.927 0 9.855.009 14.81.018.055-15.935.065-31.871-.037-47.806-3.672-.359-7.271-.599-10.888-.959m11.885.775a6397.623 6397.623 0 0 0 0 47.991c5.204-.018 10.417-.028 15.659-.018-2.104-15.926-3.091-31.972-4.512-47.954-3.738-.028-7.447-.028-11.147-.019m-570.768 18.98c-8.443 1.024-14.644 8.517-16.71 16.397-1.956 10.777 4.872 22.385 15.539 25.393 12.697 4.152 27.202-7.788 25.596-21.066.285-12.262-12.236-23.298-24.425-20.724m950.735 15.253c2.242 11.912 4.272 23.88 5.582 35.94.609 3.008.258 7.631 3.94 8.987 37.472 21.702 74.879 43.543 112.6 64.812 1.356-6.385 4.328-12.983 9.993-16.646 5.232-4.614 12.632-3.903 19.156-3.931-2.224-2.86-4.42-5.85-6.228-8.941-2.168-4.198-1.698-9.199-2.38-13.693-47.567-22.136-95.069-44.429-142.663-66.528m179.59 6.837c-10.233 1.79-18.214 12.189-16.95 22.57-.166 10.74 10.279 20.89 21.13 19.414 13.084-.018 23.003-14.422 19.414-26.777-1.55-10.639-13.37-17.661-23.594-15.207m-1004.235 28.272c-25.495 12.032-51.174 23.695-76.651 35.783 6.524 5.066 12.798 12.448 11.857 21.26.341 6.45-3.202 11.94-6.533 17.098 6.081.009 12.06 1.163 17.873 2.916 1.938.775 3.802-.452 5.462-1.329 31.852-18.713 64.065-36.826 95.954-55.493 3.885-1.965 3.322-7.216 4.291-10.703 1.809-12.281 4.115-24.48 6.505-36.651-19.847 8.462-39.114 18.197-58.758 27.119m412.742-21.324c-3.645 7.88-7.972 15.409-12.549 22.773 26.168 11.7 56.895 11.562 83.414.96-4.134-7.723-8.185-15.502-11.691-23.529-19.654 2.721-39.492 1.374-59.174-.204m-522.223 14.339c-11.082.526-19.479 12.401-17.606 23.096.803 8.591 7.16 16.351 15.529 18.611 12.531 4.318 27.451-7.779 25.596-20.973.61-12.226-11.561-22.597-23.519-20.734m508.364 10.021c-8.175 12.309-19.525 21.887-31.372 30.496 27.34 21.26 64.221 28.484 97.993 22.247 16.812-2.62 32.877-9.329 46.607-19.377-10.999-8.923-19.396-20.438-27.174-32.129-13.093 3.995-26.362 8.415-40.277 7.613-15.742.58-31.281-2.917-45.777-8.85m432.397 7.696c2.39 15.834 3.174 31.852 4.863 47.779 28.817 19.912 57.356 40.212 86.099 60.226 1.107-7.852 3.1-16.701 10.584-20.973 6.118-5.214 14.551-3.248 21.887-3.1-4.005-4.392-6.579-9.864-8.074-15.566-.6-2.796-3.423-4.032-5.583-5.379-19.248-11.248-38.754-22.035-57.892-33.458-17.393-9.672-34.15-20.487-51.884-29.529m154.482 4.318c-9.403 2.215-17.347 11.774-16.055 21.703-.517 12.217 12.337 23.096 24.295 19.755 12.558-2.74 21.103-18.012 15.41-29.906-3.323-9.393-14.248-14.163-23.65-11.552m-1035.673 63.696c2.657 4.06 5.426 8.148 7.013 12.78 1.679 7.437-.268 15.216-4.355 21.509 4.807-.351 9.845-.821 14.487.794 3.405 1.458 6.533 3.525 9.735 5.407 20.918-14.496 41.928-28.89 62.533-43.82 4.494-2.03 5.029-7.234 5.269-11.46 1.227-14.127 3.774-28.097 4.909-42.224-33.597 18.296-66.151 38.43-99.591 57.014m380.171-31.521c6.579 10.519 14.911 19.931 24.6 27.691 26.298 20.383 60.512 29.509 93.509 27.331 36.927-1.172 74.953-16.932 96.877-47.659-11.414-3.802-22.053-9.559-31.686-16.757-25.458 18.067-57.984 25.347-88.784 20.66-21.573-2.427-42.316-10.962-59.497-24.194-11 5.906-22.664 10.76-35.019 12.928m-422.219-11.82c-9.338 1.762-16.923 11.1-16.028 20.715-.221 11.34 10.325 22.828 22.044 21.223 11.091.6 20.198-10.51 19.377-21.158.471-12.872-13.001-23.539-25.393-20.78m1060.143 20.226c-12.235.821-21.924 13.749-19.109 25.735 1.873 10.934 13.905 19.672 24.867 15.982 12.032-2.98 20.291-17.495 15.096-29.176-3.045-8.407-12.107-13.519-20.854-12.541m16.461 2.501c3.977 5.619 8.572 11.875 7.17 19.22.323 14.911-16.258 26.408-30.21 21.453 3.036 4.844 6.265 9.864 6.754 15.742.129 10.685-6.976 21.389-17.421 24.36-5.121.821-10.316-.332-15.373-1.006 3.755 5.407 6.551 11.995 5.426 18.713-.683 8.194-6.588 15.068-13.776 18.519-5.869 3.46-12.9 1.357-19.22.545 1.661 4.272 3.995 8.517 3.469 13.315.517 10.907-8.138 20.586-18.482 22.957-5.813.6-11.682-.323-17.07-2.5 1.255 3.608 2.445 7.188 3.239 10.98.84 10.805-7.087 20.983-17.043 24.406-7.077 1.781-14.533-.101-20.632-3.829 3.589 7.696 3.802 17.264-1.061 24.489-7.123 11.276-24.074 13.675-34.445 5.619.997 5.13 1.495 10.482.388 15.659-2.694 10.196-13.472 17.55-23.954 16.655-5.933.471-10.63-3.469-15.243-6.524 1.449 6.505 1.43 13.822-2.058 19.709-4.651 7.013-12.789 12.281-21.453 11.663-6.754.498-12.374-3.875-17.218-7.945.969 7.548-.295 14.967-3.986 21.629 38.828 9.864 79.492 18.141 119.529 10.897 25.882-4.881 49.818-17.135 76.005-20.807 21.398-3.46 43.7-1.439 64.083 5.979 8.323 2.98 15.871 7.649 23.631 11.839-9.975-16.12-17.163-34.215-19.109-53.158-1.264-17.07.775-34.233 4.983-50.768 3.774-14.847 9.347-29.167 13.186-43.995 5.776-20.189 7.151-41.44 6.007-62.33-1.965-27.497-7.188-54.754-15.742-80.96-3.472-.083-6.95-.323-10.374-.526m-148.752 2.454c1.033 17.522 2.058 35.063 1.984 52.641 19.423 16.508 38.976 32.858 58.574 49.163-.028-5.859-1.098-12.069 1.356-17.559 2.98-5.693 8.24-10.39 14.321-12.521 5.619-2.519 11.396-.258 16.997.978-3.349-5.333-5.5-11.755-11.137-15.253-27.257-19.294-54.69-38.367-82.095-57.449m-942.689 8.305c-9.126 35.783-16.803 72.978-11.525 110.016 2.362 19.497 10.362 37.592 15.696 56.36 5.112 16.664 8.711 34.048 7.428 51.589-.018 22.311-7.253 44.171-19.193 62.92 16.72-10.362 35.469-18.039 55.234-19.469 16.028-.849 32.129.895 47.677 4.807 24.231 6.339 47.566 16.646 72.775 18.722 41.116 3.257 82.694-3.479 121.569-16.895 2.676-.766 3.875-3.423 5.066-5.666-4.992 3.008-9.753 6.883-15.612 7.972-7.815.849-16.249-1.661-21.398-7.816-5.656-5.555-6.524-13.85-5.416-21.296-3.377 2.122-6.81 4.217-10.528 5.684-11.313 3.1-23.612-3.617-28.078-14.192-2.962-5.296-1.236-11.552-.258-17.181-6.302 4.706-14.662 7.345-22.367 4.761-7.262-1.356-12.328-7.686-15.751-13.758-2.667-5.952-.674-12.66.286-18.814-4.595 1.993-9.126 5.001-14.413 4.235-11.912.48-22.533-9.79-23.612-21.435-.12-4.521 1.2-8.83 2.362-13.121-10.907 6.099-26.491 3.1-32.341-8.664-5.13-7.779-3.866-17.855.913-25.412-2.648.877-5.241 2.002-7.982 2.574-11.645 2.436-23.585-6.09-26.722-17.209-2.916-7.087.701-14.431 3.968-20.651-7.262 1.449-15.603 2.584-22.007-1.901-6.265-5.167-12.042-12.734-10.833-21.352-.508-5.472 2.482-10.122 5.195-14.524-3.562.175-7.133.286-10.685.277-10.224-.692-18.325-9.873-19.857-19.626-1.449-7.908 1.882-15.76 7.539-21.167-4.568.231-9.227.517-13.739-.212-5.364-1.611-9.221-6.05-13.391-9.556m39.631 6.893c-7.345.95-14.247 5.472-16.978 12.577-4.623 10.87 1.753 25.015 13.13 28.577 10.454 4.927 23.077-2.713 26.233-13.177 5.056-13.721-7.899-29.777-22.385-27.977m45.296 45.01c2.39 4.309 4.318 8.895 5.149 13.804.314 5.85-2.418 11.073-4.586 16.305 5.158-1.163 10.547-1.827 15.797-.803 5.472 1.246 9.347 5.629 13.527 9.08 10.076-8.637 20.198-17.227 30.441-25.67 1.495-19.386 3.008-38.754 4.854-58.104-21.925 14.846-43.535 30.145-65.182 45.388m535.502-34.814c-8.092 3.839-16.111 7.935-24.581 10.897-37.25 12.429-79.234 9.504-114.648-7.336-2.168-1.052-4.632.803-6.653 1.107-6.311 2.196-12.724 4.069-19.11 6.016 27.599 40.581 58.482 79.105 93.176 113.864 5.684-4.881 11.211-9.938 16.757-14.967 31.926-30.524 62.773-62.487 88.517-98.5-11.322-3.164-22.45-7.003-33.458-11.081m431.437 9.227c-4.328.508-8.517 2.049-12.069 4.558-9.043 6.902-11.497 21.287-3.875 30.173 6.819 10.233 23.622 10.261 31.142.775 6.127-5.841 7.373-15.151 4.77-22.893-2.981-7.935-11.691-12.918-19.968-12.613m-988.125 19.506c-12.383 1.153-21.333 15.696-15.982 27.128 3.073 10.261 14.717 16.96 25.116 14.311 8.987-2.224 16.166-11.202 15.345-20.614.379-12.465-12.216-23.279-24.479-20.825m880.858 1.32c.009 15.723.055 31.465-1.098 47.17.424 4.189-2.251 9.901 1.652 13.167 10.316 9.356 18.694 21.629 31.677 27.534-2.251-4.614-4.641-9.504-3.654-14.837-.203-10.593 8.369-19.986 18.537-22.007 5.379-.434 10.833.526 16 2.048-20.659-18.132-41.937-35.562-63.114-53.075m75.073 18.085c-12.374 3.571-19.571 18.99-12.909 30.57 6.21 13.25 26.796 14.551 34.704 2.233 8-8.969 5.61-24.397-4.457-30.699-5.038-3.497-11.617-2.925-17.338-2.104m-903.548 26.353c3.091 8.406 2.74 17.522-1.033 25.615 6.597-1.569 13.684-3.543 20.254-.794 5.444 2.15 8.877 7.142 12.743 11.257 4.807-4.254 9.31-8.84 13.555-13.638-6.035-.452-12.078-.775-18.113-1.227.092-15.262 1.347-30.468 1.762-45.712-9.929 7.918-19.848 15.872-29.168 24.499m317.02-1.91c33.107 49.098 71.123 94.773 112.083 137.504 15.742-12.697 29.859-27.202 44.66-40.932 29.739-30.311 58.381-61.85 83.322-96.286-17.781-4.817-35.017-11.349-52.226-17.836a451.263 451.263 0 0 1-16.729 18.694c-18.187 18.353-36.198 36.955-56.231 53.343-22.062-22.93-43.063-46.939-62.468-72.166-17.422 6.016-34.741 12.383-52.411 17.679m-342.662-6.957c-9.975 2.252-17.559 12.715-15.511 22.976 1.947 10.759 12.817 20.06 23.982 18.676 14.108-.766 22.671-19.34 15.114-30.957-4.236-8.499-14.552-12.393-23.585-10.695m330.888 12.521c-20.281 55.446-40.369 110.976-60.651 166.422 6.127 1.338 12.715 3.331 16.674 8.572 4.078 4.226 4.761 10.316 6.422 15.723 2.584-2.75 5.38-5.342 8.415-7.575 4.466-2.879 9.993-3.22 15.123-3.774 13.629-50.565 27.091-101.167 40.747-151.723.102-2.491 2.27-5.453.526-7.862-5.564-8.646-12.217-16.526-17.55-25.319-3.468 1.227-8.424 1.365-9.706 5.536m253.887-4.577c-3.82 4.854-7.779 9.615-11.276 14.708-2.122 2.759-1.089 6.487-.507 9.633 14.293 53.933 29.167 107.719 43.229 161.716 5.832-4.189 12.457-8.646 20.051-7.096 7.585-.203 14.302 4.734 18.261 10.897.037-7.474 2.722-14.468 7.428-20.235-20.032-54.957-40.138-109.905-60.014-164.918-5.73-1.577-11.451-3.164-17.172-4.705m-292.309 10.565c-4.272.6-5.001 5.647-6.865 8.729-20.641 45.158-42.104 89.947-62.736 135.105 4.263.747 8.923.498 12.909 2.537 9.725 4.032 14.8 15.409 13.278 25.559 4.254-5.601 10.556-9.218 17.283-11.054 2.178-.461 2.879-2.731 3.635-4.521 15.926-44.54 32.489-88.849 48.388-133.407 3.58-10.353 8.12-20.383 10.925-30.994-12.245 2.796-24.536 5.426-36.817 8.046m311.585-5.158c19.783 54.072 39.336 108.226 59.137 162.298 5.739-2.076 11.617-5.296 17.947-4.088 6.468.498 11.672 4.761 16.277 8.95.185-4.143.222-8.351 1.375-12.337 1.993-4.392 5.416-7.88 8.074-11.839-2.122-6.745-5.73-12.909-8.618-19.331-17.273-37.186-34.787-74.27-51.848-111.548-1.744-4.586-7.705-4.097-11.506-5.223-10.382-1.834-20.513-4.805-30.838-6.882m296.516 4.18c-9.67 2.39-17.882 12.392-16.092 22.644-.028 11.755 12.549 21.887 24.028 18.51 11.635-2.03 19.995-14.865 17.061-26.39-1.919-10.87-14.496-17.855-24.997-14.764m-655.123 8.545c-3.23.194-4.364 3.626-5.905 5.915-21.103 37.232-42.777 74.141-63.982 111.308 6.588.018 13.712-1.541 19.654 2.113 9.153 4.697 13.407 15.622 12.272 25.55 4.014-2.98 8.517-5.241 12.494-8.24 2.639-3.165 3.839-7.271 5.712-10.87 20.171-44.088 41.163-87.797 61.13-131.968-13.804 1.975-27.553 4.337-41.375 6.192m401.753-3.184c20.014 44.383 41.329 88.166 61.333 132.549 6.367-1.347 12.992-3.377 19.451-1.246 4.383 1.412 7.806 4.669 11.303 7.557-.277-4.328-.461-8.738.037-13.001 1.449-6.801 7.04-11.414 11.958-15.797-18.667-32.166-37.278-64.378-55.686-96.701-1.689-2.205-2.796-5.527-5.887-5.933-14.126-2.722-28.447-4.373-42.509-7.428m205.25 2.455c-.508 6.09-1.024 12.226-1.596 18.334-14.468-.083-28.918-.803-43.359-1.476 9.624 12.143 19.257 24.397 29.878 35.663 5.195 1.726 10.473 3.34 15.483 5.638-4.577-9.144-3.986-21.398 4.106-28.411 4.337-5.666 11.829-5.924 18.233-7.216-7.621-7.483-15.077-15.123-22.745-22.532m-660.706 5.868c-13.896 19.912-27.931 39.732-41.633 59.792-7.622 11.239-16.221 21.859-22.764 33.808 5.463-2.316 10.879-5.749 17.098-5.167 6.597-.111 13.739 2.611 17.495 8.268 5.324 6.09 5.85 14.653 5.066 22.367 4.134-3.663 7.409-8.12 10.03-12.964 20.918-37.112 42.63-73.772 63.631-110.819-16.24 2.252-32.6 3.257-48.923 4.715m377.8-3.395c-9.098 10.999-17.882 22.256-27.368 32.932 8.129 50.085 17.91 99.894 25.947 149.998 4.586-5.638 9.864-12.005 17.698-12.558 10.74-1.965 20.835 4.974 25.319 14.404.277-8.212 4.457-16.268 1.772-24.452-8.803-33.006-17.735-65.984-26.491-99.008-5.712-20.412-10.391-41.146-16.877-61.316m-433.79 5.287c-13.084 15.594-26.224 31.142-39.299 46.745-4.78 4.771-3.802 12.097-5.564 18.196 4.078-2.344 8.452-4.189 13.084-5.14 7.299-.581 14.339 2.999 19.331 8.138 3.765 4.383 5.536 10.159 6.302 15.815 7.363-9.993 14.413-20.226 21.453-30.45 12.448-18.639 26.408-36.272 38.118-55.391-17.781 1.432-35.589 2.105-53.425 2.087m559.317-2.002c18.556 34.085 38.551 67.377 57.836 101.066 4.909-.341 9.809-.554 14.736.009 4.401.904 7.76 4.143 11.469 6.542-1.264-5.684-1.91-11.737.249-17.292 2.094-6.856 9.043-10.371 14.524-14.229a8870.4 8870.4 0 0 0-48.757-69.702c-16.701-2.058-33.421-3.931-50.057-6.394m-622.072 1.292c-5.057 3.396-9.07 8.212-13.02 12.807-2.039 1.919-1.043 4.761-1.117 7.179.424 4.881-.84 9.688-1.799 14.478 7.114-3.063 15.52-4.466 22.634-.6 6.69 2.657 10.067 9.153 12.835 15.326 13.555-16.129 27.506-31.954 40.388-48.627-19.985.442-39.962-1.339-59.921-.563m-39.76 1.762c-6.182.627-11.737 4.688-15.179 9.725-6.431 10.842-.36 25.938 11.054 30.487 6.33 3.377 14.376 1.827 20.069-2.141 7.834-5.121 10.621-16.277 6.699-24.664-3.386-8.886-13.093-15.077-22.643-13.407m319.336 31.354c-10.944 42.51-23.05 84.715-33.781 127.271 5.121 2.408 10.74 4.863 13.905 9.818 3.58 4.005 3.829 9.559 3.977 14.634 3.359-5.01 6.671-10.648 12.678-12.752 5.02-2.676 10.897-1.845 16.36-2.288 7.917-41.098 14.422-82.464 22.164-123.599 1.384-3.423.701-7.059-1.689-9.707-8.757-10.685-17.07-21.712-25.403-32.71-3.192 9.642-5.6 19.524-8.211 29.333m395.063-27.968c14.976 21.933 30.339 43.599 45.61 65.329 1.43 3.958 5.767 3.654 9.079 4.023 5.389-.221 9.965 2.703 14.441 5.278-1.652-6.044-3.626-12.401-.471-18.39 2.704-8.378 11.11-12.263 18.676-15.252-9.984-12.051-19.755-24.378-30.247-35.94-18.942-2.473-38.098-2.953-57.088-5.048m120.656 13.223c-12.42 2.399-20.549 17.43-15.077 29.057 3.958 11.405 19.571 16.111 29.453 9.273 9.439-4.863 13.841-17.366 9.541-27.063-4.033-8.896-14.552-13.482-23.917-11.267m-360.296 46.025c2.021 35.82 6.256 71.483 8.812 107.266.729 7.908 1.273 15.935 3.276 23.668 1.892-5.878 3.691-12.346 8.877-16.221 7.88-7.649 21.269-6.893 29.546-.314 3.073 2.962 5.453 6.579 8.065 10.002.535-9.91-1.615-19.654-3.525-29.296-7.603-42.971-14.967-85.979-22.847-128.895-10.548 11.433-20.762 23.216-32.204 33.79m-444.29-30.237c-6.422 1.855-12.318 6.856-14.035 13.499-4.531 13.38 8.037 28.549 21.887 27.469 10.667.535 20.217-9.698 19.239-20.272 1.098-13.767-14.053-24.987-27.091-20.696m326.477 7.658a71046.119 71046.119 0 0 1-17.338 98.427c-1.79 10.334-4.078 20.614-4.89 31.105 7.576 4.078 12.881 11.525 14.902 19.866 2.713-3.811 4.881-8.24 8.987-10.759 6.588-5.564 15.659-3.423 23.502-2.556 3.073-28.374 4.77-56.877 7.677-85.26-.074-4.623 2.307-10.251-1.467-14.025-10.732-12.032-21.029-24.433-31.373-36.798m443.986 7.078c-5.084.526-9.449 3.728-12.651 7.557-6.302 6.81-6.108 18.141-1.19 25.624 5.195 7.114 15.29 10.657 23.539 6.865 8.775-2.796 15.843-11.682 14.718-21.14.765-12.346-12.789-21.85-24.416-18.906m-731.737 13.776c-12.226 1.393-21.555 15.64-15.963 27.146 3.94 12.715 21.241 18.805 32.157 11.137 8.6-5.389 10.547-17.236 6.791-26.104-4.115-8.147-13.739-13.951-22.985-12.179m365.186 40.498c-.129 26.012-.637 52.06.092 78.062.138 6.524 5.352 11.285 6.791 17.486.904-12.226 12.937-22.21 25.2-20.254 6.644-.489 11.774 4.281 16.664 8.019-4.005-39.696-6.801-79.511-10.657-119.216-12.715 11.949-24.665 24.72-38.09 35.903m328.701-26.657c-8.914 1.892-16.369 10.021-16.554 19.303-1.818 11.645 9.144 22.819 20.734 21.721 11.497.332 22.109-10.519 21.195-22.044.766-12.771-13.481-22.348-25.375-18.98m-370.99 7.437c-2.611 25.329-4.06 50.768-6.837 76.088-.471 6.404-1.735 13.047.185 19.359 3.414 5.324 8.203 9.975 9.578 16.378 3.506-7.483 9.31-14.976 17.928-16.443 6.782-2.574 13.352 1.938 19.497 4.337-.203-26.048-.009-52.097-.129-78.145-3.7 2.925-7.4 5.841-11.128 8.729-9.901-9.902-18.842-20.753-29.094-30.303m-285.988 5.481c-11.469 2.048-19.534 15.105-15.059 26.215 4.051 11.672 18.233 18.224 29.721 13.297 10.722-4.466 14.957-19.146 8.932-28.854-4.383-8.315-14.33-13.288-23.594-10.658m617.292 11.977c-9.403 2.215-17.338 11.774-16.065 21.703-.415 10.362 8.941 19.672 19.322 19.405 11.313.24 22.459-8.692 22.967-20.374.978-13.343-13.398-24.582-26.224-20.734m-577.624 11.063c-10.122 2.242-17.864 12.724-15.686 23.188 1.67 11.848 14.441 19.949 25.956 17.421 9.476-.96 16.747-10.39 15.926-19.792 1.19-13.38-13.573-24.129-26.196-20.817m538.879 10.159c-11.866 1.569-21.822 14.459-17.984 26.371 2.381 12.558 18.685 19.276 29.564 12.844 10.925-4.687 15.742-19.423 9.209-29.453-4.402-6.8-12.605-11.275-20.789-9.762m-497.338 10.196c-8.6 1.486-14.819 9.901-15.779 18.279-.628 10.15 7.142 20.161 17.19 21.915 13.555 4.217 28.9-9.504 25.227-23.419-1.854-11.81-15.077-20.29-26.638-16.775m453.979 8.305c-10.639 1.928-19.359 12.983-17.449 23.899.914 9.928 10.796 17.993 20.697 17.098 12.54.36 24.434-12.346 21.389-24.941-1.966-10.843-13.998-18.354-24.637-16.056m-409.679 8.332c-8.674 1.126-15.077 8.969-16.867 17.172-1.356 11.552 8.24 22.422 19.636 23.4 12.604 2.602 25.015-9.587 23.197-22.09-.997-12.189-13.971-21.767-25.966-18.482m368.968 6.367c-7.742.203-15.299 4.568-18.694 11.645-5.186 8.932-2.039 21.868 7.336 26.703 11.903 7.926 30.764-.009 32.858-14.321 2.288-12.419-8.803-25.098-21.5-24.027m-323.755 6.468c-13.075 1.319-22.007 16.987-15.815 28.844 4.66 10.74 18.722 15.493 29.057 10.224 8.074-3.562 14.062-13.204 11.359-21.97-1.865-11.1-13.63-19.054-24.601-17.098m274.962 5.592c-9.679 1.882-18.418 11.396-16.969 21.647-.775 13.555 15.354 22.782 27.359 18.27 8.397-2.713 16.065-10.722 14.976-20.042.535-12.549-13.214-23.372-25.366-19.875m-230.69 4.586c-6.662 1.421-12.807 5.933-15.197 12.466-3.516 7.502-1.31 17.384 5.269 22.487 9.735 9.698 28.761 7.003 34.215-6.062 3.248-5.573 2.279-12.761-.738-18.224-4.107-8.444-14.497-12.854-23.549-10.667m303.511.507c-.711 6.33-1.467 13.37-6.145 18.187-6.265 7.493-17.319 9.172-26.325 6.524-5.933-1.716-9.43-6.948-12.854-11.645.249 9.033-4.475 18.519-13.112 22.025-11.368 6.394-26.473.554-31.954-10.879-1.32 6.505-4.429 12.946-9.892 16.95-5.841 4.798-14.182 4.521-21.195 3.331-7.382-1.688-12.088-8.369-15.206-14.791-1.753 5.592-3.829 11.617-8.766 15.216-4.678 3.386-10.408 5.878-16.323 4.835-10.648.323-19.082-8.526-21.785-18.27-1.587 12.752-15.188 21.85-27.682 18.833-9.393-.978-15.373-8.969-18.722-17.08-3.829 6.57-9.347 12.604-17.033 14.422-7.502 1.209-16-.018-21.712-5.389-4.235-3.765-5.998-9.329-7.852-14.477-2.445 4.272-5.26 8.664-9.753 11.026-8.258 5.093-19.349 3.839-27.045-1.716-5.555-4.134-7.908-10.925-9.264-17.43-5.287 8.794-15.668 14.736-26.095 12.152-10.98-2.021-18.528-12.54-19.303-23.289-2.131 2.537-4.374 5.01-7.022 7.05-4.577 3.349-10.556 2.916-15.908 3.543 18.574 35.885 43.857 68.697 76.189 93.195 18.03 13.776 39.52 21.73 58.75 33.532 22.717 13.546 42.427 33.319 52.881 57.891 3.58 7.76 5.555 16.092 7.723 24.332 5.795-26.233 19.783-50.75 40.627-67.912 27.626-25.052 66.279-33.08 93.462-58.75 28.484-26.454 49.984-59.58 67.746-93.942a678.459 678.459 0 0 1-6.43-7.474m-119.852 3.322c-13.167 2.519-19.82 19.922-12.641 31.013 4.558 5.841 11.857 10.371 19.552 8.969 10.796.388 20.724-9.421 20.281-20.254.434-13.49-14.505-23.899-27.192-19.728m-138.445 2.657c-10.418 2.104-18.436 14.109-15.317 24.563 2.759 11.562 16.738 19.479 27.949 14.819 8.563-2.962 15.742-11.506 14.182-21.01-.554-12.881-14.533-22.229-26.814-18.372m95.981.997c-12.789.784-23.114 15.262-18.316 27.488 3.147 8.019 11.636 14.801 20.623 13.435 12.134.803 23.566-11.377 20.881-23.529-1.532-10.714-12.475-19.036-23.188-17.394m-46.265.627c-9.938 1.356-19.239 9.596-19.626 20.042-.71 11.995 11.063 22.957 22.994 21.167 11.802.277 21.924-11.765 19.783-23.308-1.661-10.62-12.531-18.805-23.151-17.901z" 
stroke="#280c40" 
stroke-width="2"
fill="#280c40"/>
<path d="M806.201 700.232c13.426-.96 27.137-1.107 40.323 2.085 20.927 4.641 39.133 16.572 56.784 28.189 13.601 8.997 18.722 25.126 25.458 39.077 17.292 35.922 15.4 80.36-4.854 114.694-5.961 9.07-10.122 19.488-18.159 27.054-8.618 8.886-20.171 13.942-30.764 20.005-27.875 14.847-62.007 18.113-91.995 7.926-12.531-3.543-23.373-11.026-34.99-16.637-12.918-6.478-23.539-17.587-28.964-31.013-7.031-13.915-14.939-27.7-17.458-43.331-8.747-39.105 3.008-82.242 31.022-111.003 18.944-20.658 45.712-34.149 73.597-37.046m-54.118 22.459c8.055-2.87 16.6-5.712 25.246-3.857 13.527.867 23.105 11.958 30.607 22.099 9.144-2.768 18.777-2.095 27.949.175 5.462-8.065 12.503-15.631 21.795-19.119 7.963-3.248 16.618-2.722 25.024-2.261-38.671-25.881-93.075-24.331-130.621 2.963m-26.583 29.62c-3.839 7.317-5.352 15.862-3.885 24.037.923 11.857 8.941 21.693 18.067 28.678 4.955-9.384 14.007-18.537 25.458-17.439 17.615.203 31.705 12.125 44.568 22.736-10.39-13.942-23.216-29.721-20.125-48.388 1.384-9.098 8.674-15.76 16.203-20.254-6.293-10.962-16.701-20.051-29.647-21.499-21.426-1.44-42.113 12.797-50.639 32.129m112.129-10.427c7.806 4.844 15.502 11.894 15.815 21.785.508 14.865-7.889 27.986-16.434 39.437 12.401-7.908 25.596-17.845 41.246-15.197 10.298 1.458 17.652 10.002 22.099 18.86 11.368-6.976 22.468-17.338 23.382-31.511 1.135-25.615-19.691-49.522-44.614-53.951-16.442-2.362-33.549 5.915-41.494 20.577m-26.316.332c-13.269 2.685-23.428 16.701-20.042 30.265 3.728 17.956 15.825 32.821 28.254 45.721 10.713-9.227 20.208-20.106 26.805-32.674 5.029-9.569 7.963-21.712 2.205-31.631-8.009-11.58-24.055-16.092-37.222-11.681m-95.446 139.46c-.572-7.123-.203-14.431 2.556-21.13 4.051-10.722 13.878-17.486 23.179-23.354-4.337-9.707-4.088-20.484-2.722-30.81-9.006-6.09-16.157-15.289-18.436-26.039-2.86-9.892.138-19.802 2.98-29.25-27.516 37.259-30.136 90.325-7.557 130.583m209.605-114.842c.212 7.659-.591 15.557-4.309 22.404-4.014 8.517-12.189 13.905-19.783 18.907.794 9.993-.018 20.115-3.128 29.675 8.581 5.01 16.323 12.171 20.088 21.546 3.746 7.852 3.183 16.775 3.183 25.264 21.481-35.101 22.874-81.321 3.949-117.796m-168.314 23.53c-6.597 1.864-10.971 7.797-14.284 13.426-4.752 9.135-4.023 20.171-.711 29.665 4.844 12.623 19.949 19.848 32.886 15.539 16.138-5.25 29.887-16.102 41.984-27.737-10.436-12.226-23.188-22.939-38.136-29.158-6.846-2.741-14.587-3.802-21.739-1.735m104.314 1.042c-14.883 5.795-27.58 15.935-39.243 26.639 11.866 12.429 24.877 25.061 41.707 30.247 10.048 4.097 23.114 1.993 29.509-7.382 10.159-13.85 9.024-36.623-5.601-46.967-7.345-6.071-17.837-5.563-26.372-2.537m-66.094 58.482c-5.333 9.181-9.089 20.152-6.339 30.8 1.624 4.125 3.949 8.24 7.603 10.907 11.635 8.71 28.853 9.412 41.117 1.55 6.321-4.724 10.611-12.069 11.377-19.958-.194-6.155-1.522-12.3-4.226-17.836-6.256-12.835-14.939-24.406-25.006-34.482-9.191 8.738-18.141 17.974-24.526 29.019m34.5-21.314c7.446 10.814 15.945 21.287 19.645 34.131 2.408 8.674 1.107 18.593-4.392 25.855-3.534 4.161-8.231 7.05-12.752 10.012 4.355 10.048 11.11 19.774 21.444 24.332 15.243 7.945 34.002 1.587 46.459-8.692 12.263-10.39 21.638-26.473 19.313-42.999-1.07-13.149-9.79-25.292-21.546-31.003-3.073.554-4.946 4.42-7.686 5.896-7.243 7.188-18.233 6.662-27.285 3.968-12.743-4.181-23.354-12.689-33.2-21.5m-28.475 8.848c-12.411 7.492-26.371 17.67-41.735 13.536-7.253-1.144-12.06-7.068-17.089-11.802-8.84 4.669-17.495 10.741-21.693 20.189-7.714 14.579-2.002 32.074 7.142 44.54 10.759 14.21 29.02 24.397 47.216 20.964 14.136-2.021 25.707-12.89 30.764-25.91-7.271-3.276-14.653-7.871-17.79-15.566-2.482-4.457-2.002-9.799-1.578-14.653 1.43-11.764 8.405-21.683 14.763-31.298m7.234 62.109c-5.481 9.366-11.866 19.027-22.191 23.529-7.963 4.448-17.338 4.558-26.205 4.291 22.007 12.54 47.972 18.454 73.19 14.967 15.677-1.421 30.597-7.086 44.54-14.145-8.803.443-18.288.471-26.067-4.217-9.984-5.223-16.646-14.801-21.555-24.637-7.244.304-14.487.406-21.712.212z"
stroke="#280c40" 
stroke-width="2"
fill="#280c40"/>
</svg>